solid OpenSCAD_Model
  facet normal 1 0 0
    outer loop
      vertex 79 6.79616 13.2601
      vertex 79 8.65 17.5
      vertex 79 6.85 13.6
    endloop
  endfacet
  facet normal 1 0 0
    outer loop
      vertex 79 8.65 17.5
      vertex 79 6.79616 13.9399
      vertex 79 6.85 13.6
    endloop
  endfacet
  facet normal 1 0 0
    outer loop
      vertex 79 8.65 17.5
      vertex 79 6.63992 14.2466
      vertex 79 6.79616 13.9399
    endloop
  endfacet
  facet normal 1 0 0
    outer loop
      vertex 79 8.65 17.5
      vertex 79 6.39656 14.4899
      vertex 79 6.63992 14.2466
    endloop
  endfacet
  facet normal 1 0 0
    outer loop
      vertex 79 8.65 17.5
      vertex 79 6.08992 14.6462
      vertex 79 6.39656 14.4899
    endloop
  endfacet
  facet normal 1 0 0
    outer loop
      vertex 79 8.65 17.5
      vertex 79 5.75 14.7
      vertex 79 6.08992 14.6462
    endloop
  endfacet
  facet normal 1 0 0
    outer loop
      vertex 79 8.65 17.5
      vertex 79 5.41008 14.6462
      vertex 79 5.75 14.7
    endloop
  endfacet
  facet normal 1 -0 0
    outer loop
      vertex 79 0 17.5
      vertex 79 5.41008 14.6462
      vertex 79 8.65 17.5
    endloop
  endfacet
  facet normal 1 0 0
    outer loop
      vertex 79 0 0
      vertex 79 3.75 5
      vertex 79 0 17.5
    endloop
  endfacet
  facet normal 1 0 0
    outer loop
      vertex 79 4.70384 13.2601
      vertex 79 0 17.5
      vertex 79 3.75 5
    endloop
  endfacet
  facet normal 1 0 0
    outer loop
      vertex 79 4.70384 13.9399
      vertex 79 0 17.5
      vertex 79 4.65 13.6
    endloop
  endfacet
  facet normal 1 0 0
    outer loop
      vertex 79 4.86008 14.2466
      vertex 79 0 17.5
      vertex 79 4.70384 13.9399
    endloop
  endfacet
  facet normal 1 0 0
    outer loop
      vertex 79 5.10344 14.4899
      vertex 79 0 17.5
      vertex 79 4.86008 14.2466
    endloop
  endfacet
  facet normal 1 0 0
    outer loop
      vertex 79 5.41008 14.6462
      vertex 79 0 17.5
      vertex 79 5.10344 14.4899
    endloop
  endfacet
  facet normal 1 0 0
    outer loop
      vertex 79 8.65 17.5
      vertex 79 6.79616 13.2601
      vertex 79 8.65 5
    endloop
  endfacet
  facet normal 1 -0 0
    outer loop
      vertex 79 6.63992 12.9534
      vertex 79 8.65 5
      vertex 79 6.79616 13.2601
    endloop
  endfacet
  facet normal 1 -0 0
    outer loop
      vertex 79 6.39656 12.7101
      vertex 79 8.65 5
      vertex 79 6.63992 12.9534
    endloop
  endfacet
  facet normal 1 -0 0
    outer loop
      vertex 79 6.08992 12.5538
      vertex 79 8.65 5
      vertex 79 6.39656 12.7101
    endloop
  endfacet
  facet normal 1 0 0
    outer loop
      vertex 79 5 5
      vertex 79 6.08992 12.5538
      vertex 79 5.75 12.5
    endloop
  endfacet
  facet normal 1 0 0
    outer loop
      vertex 79 5 5
      vertex 79 5.75 12.5
      vertex 79 5.41008 12.5538
    endloop
  endfacet
  facet normal 1 0 0
    outer loop
      vertex 79 3.75 5
      vertex 79 5.41008 12.5538
      vertex 79 5.10344 12.7101
    endloop
  endfacet
  facet normal 1 0 0
    outer loop
      vertex 79 6.08992 12.5538
      vertex 79 5 5
      vertex 79 8.65 5
    endloop
  endfacet
  facet normal 1 0 0
    outer loop
      vertex 79 3.75 5
      vertex 79 5.10344 12.7101
      vertex 79 4.86008 12.9534
    endloop
  endfacet
  facet normal 1 0 0
    outer loop
      vertex 79 3.75 5
      vertex 79 4.86008 12.9534
      vertex 79 4.70384 13.2601
    endloop
  endfacet
  facet normal 1 0 0
    outer loop
      vertex 79 0 17.5
      vertex 79 4.70384 13.2601
      vertex 79 4.65 13.6
    endloop
  endfacet
  facet normal 1 0 0
    outer loop
      vertex 79 5.41008 12.5538
      vertex 79 3.75 5
      vertex 79 5 5
    endloop
  endfacet
  facet normal 1 0 0
    outer loop
      vertex 79 5 2.5
      vertex 79 3.75 2.5
      vertex 79 5 1
    endloop
  endfacet
  facet normal 1 0 0
    outer loop
      vertex 79 90 17.5
      vertex 79 85 5
      vertex 79 90 0
    endloop
  endfacet
  facet normal 1 -0 0
    outer loop
      vertex 79 55.2962 13.9399
      vertex 79 85 5
      vertex 79 90 17.5
    endloop
  endfacet
  facet normal 1 0 0
    outer loop
      vertex 79 85 5
      vertex 79 55.2962 13.9399
      vertex 79 55.35 13.6
    endloop
  endfacet
  facet normal 1 0 0
    outer loop
      vertex 79 90 17.5
      vertex 79 55.1399 14.2466
      vertex 79 55.2962 13.9399
    endloop
  endfacet
  facet normal 1 0 0
    outer loop
      vertex 79 90 17.5
      vertex 79 54.8966 14.4899
      vertex 79 55.1399 14.2466
    endloop
  endfacet
  facet normal 1 -0 0
    outer loop
      vertex 79 51.35 17.5
      vertex 79 54.8966 14.4899
      vertex 79 90 17.5
    endloop
  endfacet
  facet normal 1 0 0
    outer loop
      vertex 79 54.8966 14.4899
      vertex 79 51.35 17.5
      vertex 79 54.5899 14.6462
    endloop
  endfacet
  facet normal 1 0 0
    outer loop
      vertex 79 53.2038 13.9399
      vertex 79 51.35 17.5
      vertex 79 53.15 13.6
    endloop
  endfacet
  facet normal 1 0 0
    outer loop
      vertex 79 53.3601 14.2466
      vertex 79 51.35 17.5
      vertex 79 53.2038 13.9399
    endloop
  endfacet
  facet normal 1 0 0
    outer loop
      vertex 79 53.6034 14.4899
      vertex 79 51.35 17.5
      vertex 79 53.3601 14.2466
    endloop
  endfacet
  facet normal 1 0 0
    outer loop
      vertex 79 53.9101 14.6462
      vertex 79 51.35 17.5
      vertex 79 53.6034 14.4899
    endloop
  endfacet
  facet normal 1 0 0
    outer loop
      vertex 79 54.25 14.7
      vertex 79 51.35 17.5
      vertex 79 53.9101 14.6462
    endloop
  endfacet
  facet normal 1 0 0
    outer loop
      vertex 79 54.5899 14.6462
      vertex 79 51.35 17.5
      vertex 79 54.25 14.7
    endloop
  endfacet
  facet normal 1 -0 0
    outer loop
      vertex 79 85 1
      vertex 79 90 0
      vertex 79 85 5
    endloop
  endfacet
  facet normal 1 -0 0
    outer loop
      vertex 79 5 1
      vertex 79 90 0
      vertex 79 85 1
    endloop
  endfacet
  facet normal 1 0 0
    outer loop
      vertex 79 5 1
      vertex 79 0 0
      vertex 79 90 0
    endloop
  endfacet
  facet normal 1 0 0
    outer loop
      vertex 79 3.75 2.5
      vertex 79 0 0
      vertex 79 5 1
    endloop
  endfacet
  facet normal 1 0 0
    outer loop
      vertex 79 3.75 5
      vertex 79 0 0
      vertex 79 3.75 2.5
    endloop
  endfacet
  facet normal 1 -0 0
    outer loop
      vertex 79 55.2962 13.2601
      vertex 79 85 5
      vertex 79 55.35 13.6
    endloop
  endfacet
  facet normal 1 -0 0
    outer loop
      vertex 79 55.1399 12.9534
      vertex 79 85 5
      vertex 79 55.2962 13.2601
    endloop
  endfacet
  facet normal 1 0 0
    outer loop
      vertex 79 51.35 5
      vertex 79 55.1399 12.9534
      vertex 79 54.8966 12.7101
    endloop
  endfacet
  facet normal 1 0 0
    outer loop
      vertex 79 51.35 5
      vertex 79 54.8966 12.7101
      vertex 79 54.5899 12.5538
    endloop
  endfacet
  facet normal 1 0 0
    outer loop
      vertex 79 51.35 5
      vertex 79 54.5899 12.5538
      vertex 79 54.25 12.5
    endloop
  endfacet
  facet normal 1 0 0
    outer loop
      vertex 79 51.35 5
      vertex 79 54.25 12.5
      vertex 79 53.9101 12.5538
    endloop
  endfacet
  facet normal 1 0 0
    outer loop
      vertex 79 51.35 17.5
      vertex 79 53.2038 13.2601
      vertex 79 53.15 13.6
    endloop
  endfacet
  facet normal 1 0 0
    outer loop
      vertex 79 55.1399 12.9534
      vertex 79 51.35 5
      vertex 79 85 5
    endloop
  endfacet
  facet normal 1 0 0
    outer loop
      vertex 79 53.6034 12.7101
      vertex 79 51.35 5
      vertex 79 53.9101 12.5538
    endloop
  endfacet
  facet normal 1 0 0
    outer loop
      vertex 79 53.3601 12.9534
      vertex 79 51.35 5
      vertex 79 53.6034 12.7101
    endloop
  endfacet
  facet normal 1 0 0
    outer loop
      vertex 79 53.2038 13.2601
      vertex 79 51.35 5
      vertex 79 53.3601 12.9534
    endloop
  endfacet
  facet normal 1 0 0
    outer loop
      vertex 79 51.35 5
      vertex 79 53.2038 13.2601
      vertex 79 51.35 17.5
    endloop
  endfacet
  facet normal -0 0 1
    outer loop
      vertex 0 90 17.5
      vertex 2.5 0 17.5
      vertex 2.5 90 17.5
    endloop
  endfacet
  facet normal 0 0 1
    outer loop
      vertex 2.5 0 17.5
      vertex 0 90 17.5
      vertex 0 0 17.5
    endloop
  endfacet
  facet normal -0 0 1
    outer loop
      vertex 76.5 90 17.5
      vertex 79 51.35 17.5
      vertex 79 90 17.5
    endloop
  endfacet
  facet normal 0 0 1
    outer loop
      vertex 79 51.35 17.5
      vertex 76.5 90 17.5
      vertex 76.5 51.35 17.5
    endloop
  endfacet
  facet normal -0 0 1
    outer loop
      vertex 76.5 8.65 17.5
      vertex 79 0 17.5
      vertex 79 8.65 17.5
    endloop
  endfacet
  facet normal 0 0 1
    outer loop
      vertex 79 0 17.5
      vertex 76.5 8.65 17.5
      vertex 76.5 0 17.5
    endloop
  endfacet
  facet normal 0 0 -1
    outer loop
      vertex 0 0 0
      vertex 79 90 0
      vertex 79 0 0
    endloop
  endfacet
  facet normal -0 0 -1
    outer loop
      vertex 79 90 0
      vertex 0 0 0
      vertex 0 90 0
    endloop
  endfacet
  facet normal -1 0 0
    outer loop
      vertex 0 53 10.5
      vertex 0 90 0
      vertex 0 53 2.5
    endloop
  endfacet
  facet normal -1 0 0
    outer loop
      vertex 0 90 0
      vertex 0 47 2.5
      vertex 0 53 2.5
    endloop
  endfacet
  facet normal -1 0 0
    outer loop
      vertex 0 47 2.5
      vertex 0 13 2.5
      vertex 0 47 10.5
    endloop
  endfacet
  facet normal -1 0 0
    outer loop
      vertex 0 0 0
      vertex 0 47 2.5
      vertex 0 90 0
    endloop
  endfacet
  facet normal -1 -0 0
    outer loop
      vertex 0 47 2.5
      vertex 0 0 0
      vertex 0 13 2.5
    endloop
  endfacet
  facet normal -1 -0 0
    outer loop
      vertex 0 7 2.5
      vertex 0 0 0
      vertex 0 7 10.5
    endloop
  endfacet
  facet normal -1 -0 0
    outer loop
      vertex 0 13 2.5
      vertex 0 0 0
      vertex 0 7 2.5
    endloop
  endfacet
  facet normal -1 0 0
    outer loop
      vertex 0 90 0
      vertex 0 53 10.5
      vertex 0 90 17.5
    endloop
  endfacet
  facet normal -1 0 0
    outer loop
      vertex 0 47 10.5
      vertex 0 90 17.5
      vertex 0 53 10.5
    endloop
  endfacet
  facet normal -1 0 0
    outer loop
      vertex 0 13 10.5
      vertex 0 47 10.5
      vertex 0 13 2.5
    endloop
  endfacet
  facet normal -1 0 0
    outer loop
      vertex 0 0 17.5
      vertex 0 47 10.5
      vertex 0 13 10.5
    endloop
  endfacet
  facet normal -1 0 0
    outer loop
      vertex 0 0 17.5
      vertex 0 13 10.5
      vertex 0 7 10.5
    endloop
  endfacet
  facet normal -1 0 0
    outer loop
      vertex 0 47 10.5
      vertex 0 0 17.5
      vertex 0 90 17.5
    endloop
  endfacet
  facet normal -1 0 0
    outer loop
      vertex 0 0 17.5
      vertex 0 7 10.5
      vertex 0 0 0
    endloop
  endfacet
  facet normal 0 1 0
    outer loop
      vertex 79 90 17.5
      vertex 76.5 90 2.5
      vertex 76.5 90 17.5
    endloop
  endfacet
  facet normal 0 1 0
    outer loop
      vertex 76.5 90 2.5
      vertex 79 90 0
      vertex 2.5 90 2.5
    endloop
  endfacet
  facet normal 0 1 -0
    outer loop
      vertex 79 90 0
      vertex 76.5 90 2.5
      vertex 79 90 17.5
    endloop
  endfacet
  facet normal 0 1 -0
    outer loop
      vertex 2.5 90 2.5
      vertex 0 90 17.5
      vertex 2.5 90 17.5
    endloop
  endfacet
  facet normal 0 1 0
    outer loop
      vertex 2.5 90 2.5
      vertex 0 90 0
      vertex 0 90 17.5
    endloop
  endfacet
  facet normal 0 1 0
    outer loop
      vertex 0 90 0
      vertex 2.5 90 2.5
      vertex 79 90 0
    endloop
  endfacet
  facet normal 0 -1 0
    outer loop
      vertex 0 0 17.5
      vertex 2.5 0 2.5
      vertex 2.5 0 17.5
    endloop
  endfacet
  facet normal 0 -1 -0
    outer loop
      vertex 2.5 0 2.5
      vertex 0 0 0
      vertex 76.5 0 2.5
    endloop
  endfacet
  facet normal 0 -1 0
    outer loop
      vertex 0 0 0
      vertex 2.5 0 2.5
      vertex 0 0 17.5
    endloop
  endfacet
  facet normal 0 -1 0
    outer loop
      vertex 76.5 0 2.5
      vertex 79 0 17.5
      vertex 76.5 0 17.5
    endloop
  endfacet
  facet normal 0 -1 0
    outer loop
      vertex 76.5 0 2.5
      vertex 79 0 0
      vertex 79 0 17.5
    endloop
  endfacet
  facet normal 0 -1 0
    outer loop
      vertex 79 0 0
      vertex 76.5 0 2.5
      vertex 0 0 0
    endloop
  endfacet
  facet normal -1 0 0
    outer loop
      vertex 76.5 85 5
      vertex 76.5 55.2962 13.2601
      vertex 76.5 55.35 13.6
    endloop
  endfacet
  facet normal -1 0 0
    outer loop
      vertex 76.5 85 5
      vertex 76.5 55.1399 12.9534
      vertex 76.5 55.2962 13.2601
    endloop
  endfacet
  facet normal -1 0 0
    outer loop
      vertex 76.5 51.35 5
      vertex 76.5 55.1399 12.9534
      vertex 76.5 85 5
    endloop
  endfacet
  facet normal -1 0 0
    outer loop
      vertex 76.5 55.1399 12.9534
      vertex 76.5 51.35 5
      vertex 76.5 54.8966 12.7101
    endloop
  endfacet
  facet normal -1 0 0
    outer loop
      vertex 76.5 54.8966 12.7101
      vertex 76.5 51.35 5
      vertex 76.5 54.5899 12.5538
    endloop
  endfacet
  facet normal -1 0 0
    outer loop
      vertex 76.5 54.5899 12.5538
      vertex 76.5 51.35 5
      vertex 76.5 54.25 12.5
    endloop
  endfacet
  facet normal -1 0 0
    outer loop
      vertex 76.5 51.35 17.5
      vertex 76.5 53.2038 13.2601
      vertex 76.5 51.35 5
    endloop
  endfacet
  facet normal -1 -0 0
    outer loop
      vertex 76.5 53.3601 12.9534
      vertex 76.5 51.35 5
      vertex 76.5 53.2038 13.2601
    endloop
  endfacet
  facet normal -1 -0 0
    outer loop
      vertex 76.5 53.6034 12.7101
      vertex 76.5 51.35 5
      vertex 76.5 53.3601 12.9534
    endloop
  endfacet
  facet normal -1 -0 0
    outer loop
      vertex 76.5 53.9101 12.5538
      vertex 76.5 51.35 5
      vertex 76.5 53.6034 12.7101
    endloop
  endfacet
  facet normal -1 -0 0
    outer loop
      vertex 76.5 54.25 12.5
      vertex 76.5 51.35 5
      vertex 76.5 53.9101 12.5538
    endloop
  endfacet
  facet normal -1 0 0
    outer loop
      vertex 76.5 85 5
      vertex 76.5 90 2.5
      vertex 76.5 85 2.5
    endloop
  endfacet
  facet normal -1 0 0
    outer loop
      vertex 76.5 90 2.5
      vertex 76.5 85 5
      vertex 76.5 90 17.5
    endloop
  endfacet
  facet normal -1 0 0
    outer loop
      vertex 76.5 55.2962 13.9399
      vertex 76.5 85 5
      vertex 76.5 55.35 13.6
    endloop
  endfacet
  facet normal -1 0 0
    outer loop
      vertex 76.5 85 5
      vertex 76.5 55.2962 13.9399
      vertex 76.5 90 17.5
    endloop
  endfacet
  facet normal -1 0 0
    outer loop
      vertex 76.5 55.1399 14.2466
      vertex 76.5 90 17.5
      vertex 76.5 55.2962 13.9399
    endloop
  endfacet
  facet normal -1 0 0
    outer loop
      vertex 76.5 54.8966 14.4899
      vertex 76.5 90 17.5
      vertex 76.5 55.1399 14.2466
    endloop
  endfacet
  facet normal -1 0 0
    outer loop
      vertex 76.5 51.35 17.5
      vertex 76.5 54.8966 14.4899
      vertex 76.5 54.5899 14.6462
    endloop
  endfacet
  facet normal -1 0 0
    outer loop
      vertex 76.5 51.35 17.5
      vertex 76.5 54.5899 14.6462
      vertex 76.5 54.25 14.7
    endloop
  endfacet
  facet normal -1 0 0
    outer loop
      vertex 76.5 53.2038 13.2601
      vertex 76.5 51.35 17.5
      vertex 76.5 53.15 13.6
    endloop
  endfacet
  facet normal -1 0 0
    outer loop
      vertex 76.5 54.8966 14.4899
      vertex 76.5 51.35 17.5
      vertex 76.5 90 17.5
    endloop
  endfacet
  facet normal -1 0 0
    outer loop
      vertex 76.5 53.9101 14.6462
      vertex 76.5 51.35 17.5
      vertex 76.5 54.25 14.7
    endloop
  endfacet
  facet normal -1 0 0
    outer loop
      vertex 76.5 53.6034 14.4899
      vertex 76.5 51.35 17.5
      vertex 76.5 53.9101 14.6462
    endloop
  endfacet
  facet normal -1 0 0
    outer loop
      vertex 76.5 53.3601 14.2466
      vertex 76.5 51.35 17.5
      vertex 76.5 53.6034 14.4899
    endloop
  endfacet
  facet normal -1 0 0
    outer loop
      vertex 76.5 53.2038 13.9399
      vertex 76.5 51.35 17.5
      vertex 76.5 53.3601 14.2466
    endloop
  endfacet
  facet normal -1 0 0
    outer loop
      vertex 76.5 53.15 13.6
      vertex 76.5 51.35 17.5
      vertex 76.5 53.2038 13.9399
    endloop
  endfacet
  facet normal -1 0 0
    outer loop
      vertex 76.5 0 2.5
      vertex 76.5 5 5
      vertex 76.5 5 2.5
    endloop
  endfacet
  facet normal -1 -0 0
    outer loop
      vertex 76.5 5 5
      vertex 76.5 0 2.5
      vertex 76.5 4.86008 12.9534
    endloop
  endfacet
  facet normal -1 -0 0
    outer loop
      vertex 76.5 4.86008 12.9534
      vertex 76.5 0 2.5
      vertex 76.5 4.70384 13.2601
    endloop
  endfacet
  facet normal -1 0 0
    outer loop
      vertex 76.5 0 17.5
      vertex 76.5 4.70384 13.2601
      vertex 76.5 0 2.5
    endloop
  endfacet
  facet normal -1 0 0
    outer loop
      vertex 76.5 6.79616 13.2601
      vertex 76.5 8.65 17.5
      vertex 76.5 8.65 5
    endloop
  endfacet
  facet normal -1 0 0
    outer loop
      vertex 76.5 8.65 17.5
      vertex 76.5 6.79616 13.2601
      vertex 76.5 6.85 13.6
    endloop
  endfacet
  facet normal -1 0 0
    outer loop
      vertex 76.5 8.65 5
      vertex 76.5 6.63992 12.9534
      vertex 76.5 6.79616 13.2601
    endloop
  endfacet
  facet normal -1 0 0
    outer loop
      vertex 76.5 8.65 5
      vertex 76.5 6.39656 12.7101
      vertex 76.5 6.63992 12.9534
    endloop
  endfacet
  facet normal -1 0 0
    outer loop
      vertex 76.5 8.65 5
      vertex 76.5 6.08992 12.5538
      vertex 76.5 6.39656 12.7101
    endloop
  endfacet
  facet normal -1 0 0
    outer loop
      vertex 76.5 5 5
      vertex 76.5 6.08992 12.5538
      vertex 76.5 8.65 5
    endloop
  endfacet
  facet normal -1 0 0
    outer loop
      vertex 76.5 6.08992 12.5538
      vertex 76.5 5 5
      vertex 76.5 5.75 12.5
    endloop
  endfacet
  facet normal -1 -0 0
    outer loop
      vertex 76.5 5.75 12.5
      vertex 76.5 5 5
      vertex 76.5 5.41008 12.5538
    endloop
  endfacet
  facet normal -1 -0 0
    outer loop
      vertex 76.5 5.41008 12.5538
      vertex 76.5 5 5
      vertex 76.5 5.10344 12.7101
    endloop
  endfacet
  facet normal -1 -0 0
    outer loop
      vertex 76.5 5.10344 12.7101
      vertex 76.5 5 5
      vertex 76.5 4.86008 12.9534
    endloop
  endfacet
  facet normal -1 0 0
    outer loop
      vertex 76.5 6.79616 13.9399
      vertex 76.5 8.65 17.5
      vertex 76.5 6.85 13.6
    endloop
  endfacet
  facet normal -1 0 0
    outer loop
      vertex 76.5 6.63992 14.2466
      vertex 76.5 8.65 17.5
      vertex 76.5 6.79616 13.9399
    endloop
  endfacet
  facet normal -1 0 0
    outer loop
      vertex 76.5 6.39656 14.4899
      vertex 76.5 8.65 17.5
      vertex 76.5 6.63992 14.2466
    endloop
  endfacet
  facet normal -1 0 0
    outer loop
      vertex 76.5 6.08992 14.6462
      vertex 76.5 8.65 17.5
      vertex 76.5 6.39656 14.4899
    endloop
  endfacet
  facet normal -1 0 0
    outer loop
      vertex 76.5 5.75 14.7
      vertex 76.5 8.65 17.5
      vertex 76.5 6.08992 14.6462
    endloop
  endfacet
  facet normal -1 0 0
    outer loop
      vertex 76.5 5.41008 14.6462
      vertex 76.5 8.65 17.5
      vertex 76.5 5.75 14.7
    endloop
  endfacet
  facet normal -1 0 0
    outer loop
      vertex 76.5 0 17.5
      vertex 76.5 5.41008 14.6462
      vertex 76.5 5.10344 14.4899
    endloop
  endfacet
  facet normal -1 0 0
    outer loop
      vertex 76.5 4.70384 13.2601
      vertex 76.5 0 17.5
      vertex 76.5 4.65 13.6
    endloop
  endfacet
  facet normal -1 0 0
    outer loop
      vertex 76.5 5.41008 14.6462
      vertex 76.5 0 17.5
      vertex 76.5 8.65 17.5
    endloop
  endfacet
  facet normal -1 0 0
    outer loop
      vertex 76.5 4.86008 14.2466
      vertex 76.5 0 17.5
      vertex 76.5 5.10344 14.4899
    endloop
  endfacet
  facet normal -1 0 0
    outer loop
      vertex 76.5 4.70384 13.9399
      vertex 76.5 0 17.5
      vertex 76.5 4.86008 14.2466
    endloop
  endfacet
  facet normal -1 0 0
    outer loop
      vertex 76.5 4.65 13.6
      vertex 76.5 0 17.5
      vertex 76.5 4.70384 13.9399
    endloop
  endfacet
  facet normal 0 0 -1
    outer loop
      vertex 84 3.75 2.5
      vertex 79.1 5 2.5
      vertex 84 56.25 2.5
    endloop
  endfacet
  facet normal 0 0 -1
    outer loop
      vertex 79 3.75 2.5
      vertex 79.1 5 2.5
      vertex 84 3.75 2.5
    endloop
  endfacet
  facet normal -0 0 -1
    outer loop
      vertex 79.1 5 2.5
      vertex 79 3.75 2.5
      vertex 79 5 2.5
    endloop
  endfacet
  facet normal -0 0 -1
    outer loop
      vertex 84 56.25 2.5
      vertex 79.1 5 2.5
      vertex 79.1 56.25 2.5
    endloop
  endfacet
  facet normal 0 0 1
    outer loop
      vertex 76.5 90 2.5
      vertex 76.4 85 2.5
      vertex 76.5 85 2.5
    endloop
  endfacet
  facet normal 0 0 1
    outer loop
      vertex 76.4 85 2.5
      vertex 2.5 90 2.5
      vertex 76.4 5 2.5
    endloop
  endfacet
  facet normal -0 0 1
    outer loop
      vertex 2.5 90 2.5
      vertex 76.4 85 2.5
      vertex 76.5 90 2.5
    endloop
  endfacet
  facet normal -0 0 1
    outer loop
      vertex 76.4 5 2.5
      vertex 76.5 0 2.5
      vertex 76.5 5 2.5
    endloop
  endfacet
  facet normal 0 0 1
    outer loop
      vertex 2.5 0 2.5
      vertex 76.4 5 2.5
      vertex 2.5 90 2.5
    endloop
  endfacet
  facet normal 0 0 1
    outer loop
      vertex 76.4 5 2.5
      vertex 2.5 0 2.5
      vertex 76.5 0 2.5
    endloop
  endfacet
  facet normal 1 -0 0
    outer loop
      vertex 2.5 0 17.5
      vertex 2.5 90 2.5
      vertex 2.5 90 17.5
    endloop
  endfacet
  facet normal 1 0 0
    outer loop
      vertex 2.5 90 2.5
      vertex 2.5 0 17.5
      vertex 2.5 0 2.5
    endloop
  endfacet
  facet normal -0.156434 -0.987688 0
    outer loop
      vertex -3.92705 7.14683 2.5
      vertex -3 7 10.5
      vertex -3.92705 7.14683 10.5
    endloop
  endfacet
  facet normal -0.156434 -0.987688 -0
    outer loop
      vertex -3 7 10.5
      vertex -3.92705 7.14683 2.5
      vertex -3 7 2.5
    endloop
  endfacet
  facet normal -0.453989 -0.891007 0
    outer loop
      vertex -4.76336 7.57295 2.5
      vertex -3.92705 7.14683 10.5
      vertex -4.76336 7.57295 10.5
    endloop
  endfacet
  facet normal -0.453989 -0.891007 -0
    outer loop
      vertex -3.92705 7.14683 10.5
      vertex -4.76336 7.57295 2.5
      vertex -3.92705 7.14683 2.5
    endloop
  endfacet
  facet normal -0.98769 0.156426 0
    outer loop
      vertex -6 10 2.5
      vertex -5.85317 10.9271 10.5
      vertex -5.85317 10.9271 2.5
    endloop
  endfacet
  facet normal -0.98769 0.156426 0
    outer loop
      vertex -5.85317 10.9271 10.5
      vertex -6 10 2.5
      vertex -6 10 10.5
    endloop
  endfacet
  facet normal -0.707112 0.707101 0
    outer loop
      vertex -5.42705 11.7634 2.5
      vertex -4.76336 12.4271 10.5
      vertex -4.76336 12.4271 2.5
    endloop
  endfacet
  facet normal -0.707112 0.707101 0
    outer loop
      vertex -4.76336 12.4271 10.5
      vertex -5.42705 11.7634 2.5
      vertex -5.42705 11.7634 10.5
    endloop
  endfacet
  facet normal -0.987688 -0.156434 0
    outer loop
      vertex -5.85317 9.07295 2.5
      vertex -6 10 10.5
      vertex -6 10 2.5
    endloop
  endfacet
  facet normal -0.987688 -0.156434 0
    outer loop
      vertex -6 10 10.5
      vertex -5.85317 9.07295 2.5
      vertex -5.85317 9.07295 10.5
    endloop
  endfacet
  facet normal -0.156403 0.987693 0
    outer loop
      vertex -3 13 2.5
      vertex -3.92705 12.8532 10.5
      vertex -3 13 10.5
    endloop
  endfacet
  facet normal -0.156403 0.987693 0
    outer loop
      vertex -3.92705 12.8532 10.5
      vertex -3 13 2.5
      vertex -3.92705 12.8532 2.5
    endloop
  endfacet
  facet normal -0.707107 -0.707107 0
    outer loop
      vertex -4.76336 7.57295 2.5
      vertex -5.42705 8.23664 10.5
      vertex -5.42705 8.23664 2.5
    endloop
  endfacet
  facet normal -0.707107 -0.707107 0
    outer loop
      vertex -5.42705 8.23664 10.5
      vertex -4.76336 7.57295 2.5
      vertex -4.76336 7.57295 10.5
    endloop
  endfacet
  facet normal -0.453973 0.891016 0
    outer loop
      vertex -3.92705 12.8532 2.5
      vertex -4.76336 12.4271 10.5
      vertex -3.92705 12.8532 10.5
    endloop
  endfacet
  facet normal -0.453973 0.891016 0
    outer loop
      vertex -4.76336 12.4271 10.5
      vertex -3.92705 12.8532 2.5
      vertex -4.76336 12.4271 2.5
    endloop
  endfacet
  facet normal -0.891007 -0.453989 0
    outer loop
      vertex -5.42705 8.23664 2.5
      vertex -5.85317 9.07295 10.5
      vertex -5.85317 9.07295 2.5
    endloop
  endfacet
  facet normal -0.891007 -0.453989 0
    outer loop
      vertex -5.85317 9.07295 10.5
      vertex -5.42705 8.23664 2.5
      vertex -5.42705 8.23664 10.5
    endloop
  endfacet
  facet normal -0.891005 0.453994 0
    outer loop
      vertex -5.85317 10.9271 2.5
      vertex -5.42705 11.7634 10.5
      vertex -5.42705 11.7634 2.5
    endloop
  endfacet
  facet normal -0.891005 0.453994 0
    outer loop
      vertex -5.42705 11.7634 10.5
      vertex -5.85317 10.9271 2.5
      vertex -5.85317 10.9271 10.5
    endloop
  endfacet
  facet normal 0 0 -1
    outer loop
      vertex 0 7 2.5
      vertex -1.9 10 2.5
      vertex 0 13 2.5
    endloop
  endfacet
  facet normal 0 0 -1
    outer loop
      vertex 0 7 2.5
      vertex -1.95384 9.66008 2.5
      vertex -1.9 10 2.5
    endloop
  endfacet
  facet normal 0 0 -1
    outer loop
      vertex 0 7 2.5
      vertex -2.11008 9.35344 2.5
      vertex -1.95384 9.66008 2.5
    endloop
  endfacet
  facet normal 0 0 -1
    outer loop
      vertex 0 7 2.5
      vertex -2.35344 9.11008 2.5
      vertex -2.11008 9.35344 2.5
    endloop
  endfacet
  facet normal 0 0 -1
    outer loop
      vertex -3 7 2.5
      vertex -2.35344 9.11008 2.5
      vertex 0 7 2.5
    endloop
  endfacet
  facet normal 0 0 -1
    outer loop
      vertex -2.35344 9.11008 2.5
      vertex -3 7 2.5
      vertex -2.66008 8.95384 2.5
    endloop
  endfacet
  facet normal 0 0 -1
    outer loop
      vertex -3 7 2.5
      vertex -3 8.9 2.5
      vertex -2.66008 8.95384 2.5
    endloop
  endfacet
  facet normal 0 0 -1
    outer loop
      vertex -3 7 2.5
      vertex -3.33992 8.95384 2.5
      vertex -3 8.9 2.5
    endloop
  endfacet
  facet normal 0 0 -1
    outer loop
      vertex -3.92705 7.14683 2.5
      vertex -3.33992 8.95384 2.5
      vertex -3 7 2.5
    endloop
  endfacet
  facet normal -0 0 -1
    outer loop
      vertex -3.33992 8.95384 2.5
      vertex -3.92705 7.14683 2.5
      vertex -3.64656 9.11008 2.5
    endloop
  endfacet
  facet normal 0 0 -1
    outer loop
      vertex -4.76336 7.57295 2.5
      vertex -3.64656 9.11008 2.5
      vertex -3.92705 7.14683 2.5
    endloop
  endfacet
  facet normal -0 0 -1
    outer loop
      vertex -3.64656 9.11008 2.5
      vertex -4.76336 7.57295 2.5
      vertex -3.88992 9.35344 2.5
    endloop
  endfacet
  facet normal 0 0 -1
    outer loop
      vertex -5.42705 8.23664 2.5
      vertex -3.88992 9.35344 2.5
      vertex -4.76336 7.57295 2.5
    endloop
  endfacet
  facet normal -0 0 -1
    outer loop
      vertex -3.88992 9.35344 2.5
      vertex -5.42705 8.23664 2.5
      vertex -4.04616 9.66008 2.5
    endloop
  endfacet
  facet normal 0 0 -1
    outer loop
      vertex -1.95384 10.3399 2.5
      vertex 0 13 2.5
      vertex -1.9 10 2.5
    endloop
  endfacet
  facet normal 0 0 -1
    outer loop
      vertex -2.11008 10.6466 2.5
      vertex 0 13 2.5
      vertex -1.95384 10.3399 2.5
    endloop
  endfacet
  facet normal 0 0 -1
    outer loop
      vertex -2.35344 10.8899 2.5
      vertex 0 13 2.5
      vertex -2.11008 10.6466 2.5
    endloop
  endfacet
  facet normal 0 0 -1
    outer loop
      vertex -3 13 2.5
      vertex -2.35344 10.8899 2.5
      vertex -2.66008 11.0462 2.5
    endloop
  endfacet
  facet normal 0 0 -1
    outer loop
      vertex -3 13 2.5
      vertex -2.66008 11.0462 2.5
      vertex -3 11.1 2.5
    endloop
  endfacet
  facet normal 0 0 -1
    outer loop
      vertex -2.35344 10.8899 2.5
      vertex -3 13 2.5
      vertex 0 13 2.5
    endloop
  endfacet
  facet normal 0 0 -1
    outer loop
      vertex -3.33992 11.0462 2.5
      vertex -3 13 2.5
      vertex -3 11.1 2.5
    endloop
  endfacet
  facet normal 0 0 -1
    outer loop
      vertex -3.92705 12.8532 2.5
      vertex -3.33992 11.0462 2.5
      vertex -3.64656 10.8899 2.5
    endloop
  endfacet
  facet normal 0 0 -1
    outer loop
      vertex -4.76336 12.4271 2.5
      vertex -3.64656 10.8899 2.5
      vertex -3.88992 10.6466 2.5
    endloop
  endfacet
  facet normal 0 0 -1
    outer loop
      vertex -3.33992 11.0462 2.5
      vertex -3.92705 12.8532 2.5
      vertex -3 13 2.5
    endloop
  endfacet
  facet normal 0 0 -1
    outer loop
      vertex -5.42705 11.7634 2.5
      vertex -3.88992 10.6466 2.5
      vertex -4.04616 10.3399 2.5
    endloop
  endfacet
  facet normal 0 0 -1
    outer loop
      vertex -5.85317 10.9271 2.5
      vertex -4.04616 10.3399 2.5
      vertex -4.1 10 2.5
    endloop
  endfacet
  facet normal 0 0 -1
    outer loop
      vertex -5.85317 9.07295 2.5
      vertex -4.04616 9.66008 2.5
      vertex -5.42705 8.23664 2.5
    endloop
  endfacet
  facet normal 0 0 -1
    outer loop
      vertex -3.64656 10.8899 2.5
      vertex -4.76336 12.4271 2.5
      vertex -3.92705 12.8532 2.5
    endloop
  endfacet
  facet normal -0 0 -1
    outer loop
      vertex -4.04616 9.66008 2.5
      vertex -5.85317 9.07295 2.5
      vertex -4.1 10 2.5
    endloop
  endfacet
  facet normal 0 0 -1
    outer loop
      vertex -3.88992 10.6466 2.5
      vertex -5.42705 11.7634 2.5
      vertex -4.76336 12.4271 2.5
    endloop
  endfacet
  facet normal 0 0 -1
    outer loop
      vertex -6 10 2.5
      vertex -4.1 10 2.5
      vertex -5.85317 9.07295 2.5
    endloop
  endfacet
  facet normal 0 0 -1
    outer loop
      vertex -4.04616 10.3399 2.5
      vertex -5.85317 10.9271 2.5
      vertex -5.42705 11.7634 2.5
    endloop
  endfacet
  facet normal 0 0 -1
    outer loop
      vertex -4.1 10 2.5
      vertex -6 10 2.5
      vertex -5.85317 10.9271 2.5
    endloop
  endfacet
  facet normal 0 0 1
    outer loop
      vertex 0 13 10.5
      vertex -1.9 10 10.5
      vertex 0 7 10.5
    endloop
  endfacet
  facet normal 0 0 1
    outer loop
      vertex 0 13 10.5
      vertex -1.95384 10.3399 10.5
      vertex -1.9 10 10.5
    endloop
  endfacet
  facet normal 0 0 1
    outer loop
      vertex 0 13 10.5
      vertex -2.11008 10.6466 10.5
      vertex -1.95384 10.3399 10.5
    endloop
  endfacet
  facet normal 0 0 1
    outer loop
      vertex 0 13 10.5
      vertex -2.35344 10.8899 10.5
      vertex -2.11008 10.6466 10.5
    endloop
  endfacet
  facet normal -0 0 1
    outer loop
      vertex -3 13 10.5
      vertex -2.35344 10.8899 10.5
      vertex 0 13 10.5
    endloop
  endfacet
  facet normal 0 0 1
    outer loop
      vertex -2.35344 10.8899 10.5
      vertex -3 13 10.5
      vertex -2.66008 11.0462 10.5
    endloop
  endfacet
  facet normal 0 0 1
    outer loop
      vertex -3 13 10.5
      vertex -3 11.1 10.5
      vertex -2.66008 11.0462 10.5
    endloop
  endfacet
  facet normal 0 0 1
    outer loop
      vertex -3 13 10.5
      vertex -3.33992 11.0462 10.5
      vertex -3 11.1 10.5
    endloop
  endfacet
  facet normal -0 0 1
    outer loop
      vertex -3.92705 12.8532 10.5
      vertex -3.33992 11.0462 10.5
      vertex -3 13 10.5
    endloop
  endfacet
  facet normal 0 0 1
    outer loop
      vertex -3.33992 11.0462 10.5
      vertex -3.92705 12.8532 10.5
      vertex -3.64656 10.8899 10.5
    endloop
  endfacet
  facet normal -0 0 1
    outer loop
      vertex -4.76336 12.4271 10.5
      vertex -3.64656 10.8899 10.5
      vertex -3.92705 12.8532 10.5
    endloop
  endfacet
  facet normal 0 0 1
    outer loop
      vertex -3.64656 10.8899 10.5
      vertex -4.76336 12.4271 10.5
      vertex -3.88992 10.6466 10.5
    endloop
  endfacet
  facet normal -0 0 1
    outer loop
      vertex -5.42705 11.7634 10.5
      vertex -3.88992 10.6466 10.5
      vertex -4.76336 12.4271 10.5
    endloop
  endfacet
  facet normal 0 0 1
    outer loop
      vertex -3.88992 10.6466 10.5
      vertex -5.42705 11.7634 10.5
      vertex -4.04616 10.3399 10.5
    endloop
  endfacet
  facet normal -0 0 1
    outer loop
      vertex -1.95384 9.66008 10.5
      vertex 0 7 10.5
      vertex -1.9 10 10.5
    endloop
  endfacet
  facet normal -0 0 1
    outer loop
      vertex -2.11008 9.35344 10.5
      vertex 0 7 10.5
      vertex -1.95384 9.66008 10.5
    endloop
  endfacet
  facet normal -0 0 1
    outer loop
      vertex -2.35344 9.11008 10.5
      vertex 0 7 10.5
      vertex -2.11008 9.35344 10.5
    endloop
  endfacet
  facet normal 0 0 1
    outer loop
      vertex -3 7 10.5
      vertex -2.35344 9.11008 10.5
      vertex -2.66008 8.95384 10.5
    endloop
  endfacet
  facet normal 0 0 1
    outer loop
      vertex -3 7 10.5
      vertex -2.66008 8.95384 10.5
      vertex -3 8.9 10.5
    endloop
  endfacet
  facet normal 0 0 1
    outer loop
      vertex -2.35344 9.11008 10.5
      vertex -3 7 10.5
      vertex 0 7 10.5
    endloop
  endfacet
  facet normal 0 0 1
    outer loop
      vertex -3.33992 8.95384 10.5
      vertex -3 7 10.5
      vertex -3 8.9 10.5
    endloop
  endfacet
  facet normal 0 0 1
    outer loop
      vertex -3.92705 7.14683 10.5
      vertex -3.33992 8.95384 10.5
      vertex -3.64656 9.11008 10.5
    endloop
  endfacet
  facet normal 0 0 1
    outer loop
      vertex -4.76336 7.57295 10.5
      vertex -3.64656 9.11008 10.5
      vertex -3.88992 9.35344 10.5
    endloop
  endfacet
  facet normal 0 0 1
    outer loop
      vertex -3.33992 8.95384 10.5
      vertex -3.92705 7.14683 10.5
      vertex -3 7 10.5
    endloop
  endfacet
  facet normal 0 0 1
    outer loop
      vertex -5.42705 8.23664 10.5
      vertex -3.88992 9.35344 10.5
      vertex -4.04616 9.66008 10.5
    endloop
  endfacet
  facet normal 0 0 1
    outer loop
      vertex -5.85317 9.07295 10.5
      vertex -4.04616 9.66008 10.5
      vertex -4.1 10 10.5
    endloop
  endfacet
  facet normal -0 0 1
    outer loop
      vertex -5.85317 10.9271 10.5
      vertex -4.04616 10.3399 10.5
      vertex -5.42705 11.7634 10.5
    endloop
  endfacet
  facet normal 0 0 1
    outer loop
      vertex -3.64656 9.11008 10.5
      vertex -4.76336 7.57295 10.5
      vertex -3.92705 7.14683 10.5
    endloop
  endfacet
  facet normal 0 0 1
    outer loop
      vertex -4.04616 10.3399 10.5
      vertex -5.85317 10.9271 10.5
      vertex -4.1 10 10.5
    endloop
  endfacet
  facet normal 0 0 1
    outer loop
      vertex -3.88992 9.35344 10.5
      vertex -5.42705 8.23664 10.5
      vertex -4.76336 7.57295 10.5
    endloop
  endfacet
  facet normal 0 0 1
    outer loop
      vertex -6 10 10.5
      vertex -4.1 10 10.5
      vertex -5.85317 10.9271 10.5
    endloop
  endfacet
  facet normal 0 0 1
    outer loop
      vertex -4.04616 9.66008 10.5
      vertex -5.85317 9.07295 10.5
      vertex -5.42705 8.23664 10.5
    endloop
  endfacet
  facet normal 0 0 1
    outer loop
      vertex -4.1 10 10.5
      vertex -6 10 10.5
      vertex -5.85317 9.07295 10.5
    endloop
  endfacet
  facet normal 0 1 -0
    outer loop
      vertex 0 13 2.5
      vertex -3 13 10.5
      vertex 0 13 10.5
    endloop
  endfacet
  facet normal 0 1 0
    outer loop
      vertex -3 13 10.5
      vertex 0 13 2.5
      vertex -3 13 2.5
    endloop
  endfacet
  facet normal 0 -1 0
    outer loop
      vertex -3 7 2.5
      vertex 0 7 10.5
      vertex -3 7 10.5
    endloop
  endfacet
  facet normal 0 -1 -0
    outer loop
      vertex 0 7 10.5
      vertex -3 7 2.5
      vertex 0 7 2.5
    endloop
  endfacet
  facet normal -0.891043 -0.453918 0
    outer loop
      vertex -1.95384 10.3399 2.5
      vertex -2.11008 10.6466 10.5
      vertex -2.11008 10.6466 2.5
    endloop
  endfacet
  facet normal -0.891043 -0.453918 0
    outer loop
      vertex -2.11008 10.6466 10.5
      vertex -1.95384 10.3399 2.5
      vertex -1.95384 10.3399 10.5
    endloop
  endfacet
  facet normal -0.987686 -0.156449 0
    outer loop
      vertex -1.9 10 2.5
      vertex -1.95384 10.3399 10.5
      vertex -1.95384 10.3399 2.5
    endloop
  endfacet
  facet normal -0.987686 -0.156449 0
    outer loop
      vertex -1.95384 10.3399 10.5
      vertex -1.9 10 2.5
      vertex -1.9 10 10.5
    endloop
  endfacet
  facet normal -0.70702 -0.707194 0
    outer loop
      vertex -2.11008 10.6466 2.5
      vertex -2.35344 10.8899 10.5
      vertex -2.35344 10.8899 2.5
    endloop
  endfacet
  facet normal -0.70702 -0.707194 0
    outer loop
      vertex -2.35344 10.8899 10.5
      vertex -2.11008 10.6466 2.5
      vertex -2.11008 10.6466 10.5
    endloop
  endfacet
  facet normal -0.156327 -0.987705 0
    outer loop
      vertex -3 11.1 2.5
      vertex -2.66008 11.0462 10.5
      vertex -3 11.1 10.5
    endloop
  endfacet
  facet normal -0.156327 -0.987705 -0
    outer loop
      vertex -2.66008 11.0462 10.5
      vertex -3 11.1 2.5
      vertex -2.66008 11.0462 2.5
    endloop
  endfacet
  facet normal 0.987686 -0.156449 0
    outer loop
      vertex -4.1 10 10.5
      vertex -4.04616 10.3399 2.5
      vertex -4.04616 10.3399 10.5
    endloop
  endfacet
  facet normal 0.987686 -0.156449 0
    outer loop
      vertex -4.04616 10.3399 2.5
      vertex -4.1 10 10.5
      vertex -4.1 10 2.5
    endloop
  endfacet
  facet normal -0.454127 -0.890937 0
    outer loop
      vertex -2.66008 11.0462 2.5
      vertex -2.35344 10.8899 10.5
      vertex -2.66008 11.0462 10.5
    endloop
  endfacet
  facet normal -0.454127 -0.890937 -0
    outer loop
      vertex -2.35344 10.8899 10.5
      vertex -2.66008 11.0462 2.5
      vertex -2.35344 10.8899 2.5
    endloop
  endfacet
  facet normal 0.454127 -0.890937 0
    outer loop
      vertex -3.64656 10.8899 2.5
      vertex -3.33992 11.0462 10.5
      vertex -3.64656 10.8899 10.5
    endloop
  endfacet
  facet normal 0.454127 -0.890937 0
    outer loop
      vertex -3.33992 11.0462 10.5
      vertex -3.64656 10.8899 2.5
      vertex -3.33992 11.0462 2.5
    endloop
  endfacet
  facet normal 0.15644 0.987687 -0
    outer loop
      vertex -3 8.9 2.5
      vertex -3.33992 8.95384 10.5
      vertex -3 8.9 10.5
    endloop
  endfacet
  facet normal 0.15644 0.987687 0
    outer loop
      vertex -3.33992 8.95384 10.5
      vertex -3 8.9 2.5
      vertex -3.33992 8.95384 2.5
    endloop
  endfacet
  facet normal -0.707107 0.707107 0
    outer loop
      vertex -2.35344 9.11008 2.5
      vertex -2.11008 9.35344 10.5
      vertex -2.11008 9.35344 2.5
    endloop
  endfacet
  facet normal -0.707107 0.707107 0
    outer loop
      vertex -2.11008 9.35344 10.5
      vertex -2.35344 9.11008 2.5
      vertex -2.35344 9.11008 10.5
    endloop
  endfacet
  facet normal 0.891008 0.453988 0
    outer loop
      vertex -3.88992 9.35344 10.5
      vertex -4.04616 9.66008 2.5
      vertex -4.04616 9.66008 10.5
    endloop
  endfacet
  facet normal 0.891008 0.453988 0
    outer loop
      vertex -4.04616 9.66008 2.5
      vertex -3.88992 9.35344 10.5
      vertex -3.88992 9.35344 2.5
    endloop
  endfacet
  facet normal 0.156327 -0.987705 0
    outer loop
      vertex -3.33992 11.0462 2.5
      vertex -3 11.1 10.5
      vertex -3.33992 11.0462 10.5
    endloop
  endfacet
  facet normal 0.156327 -0.987705 0
    outer loop
      vertex -3 11.1 10.5
      vertex -3.33992 11.0462 2.5
      vertex -3 11.1 2.5
    endloop
  endfacet
  facet normal -0.453988 0.891008 0
    outer loop
      vertex -2.35344 9.11008 2.5
      vertex -2.66008 8.95384 10.5
      vertex -2.35344 9.11008 10.5
    endloop
  endfacet
  facet normal -0.453988 0.891008 0
    outer loop
      vertex -2.66008 8.95384 10.5
      vertex -2.35344 9.11008 2.5
      vertex -2.66008 8.95384 2.5
    endloop
  endfacet
  facet normal -0.15644 0.987687 0
    outer loop
      vertex -2.66008 8.95384 2.5
      vertex -3 8.9 10.5
      vertex -2.66008 8.95384 10.5
    endloop
  endfacet
  facet normal -0.15644 0.987687 0
    outer loop
      vertex -3 8.9 10.5
      vertex -2.66008 8.95384 2.5
      vertex -3 8.9 2.5
    endloop
  endfacet
  facet normal 0.987687 0.15644 0
    outer loop
      vertex -4.04616 9.66008 10.5
      vertex -4.1 10 2.5
      vertex -4.1 10 10.5
    endloop
  endfacet
  facet normal 0.987687 0.15644 0
    outer loop
      vertex -4.1 10 2.5
      vertex -4.04616 9.66008 10.5
      vertex -4.04616 9.66008 2.5
    endloop
  endfacet
  facet normal 0.891043 -0.453918 0
    outer loop
      vertex -4.04616 10.3399 10.5
      vertex -3.88992 10.6466 2.5
      vertex -3.88992 10.6466 10.5
    endloop
  endfacet
  facet normal 0.891043 -0.453918 0
    outer loop
      vertex -3.88992 10.6466 2.5
      vertex -4.04616 10.3399 10.5
      vertex -4.04616 10.3399 2.5
    endloop
  endfacet
  facet normal 0.70702 -0.707194 0
    outer loop
      vertex -3.88992 10.6466 10.5
      vertex -3.64656 10.8899 2.5
      vertex -3.64656 10.8899 10.5
    endloop
  endfacet
  facet normal 0.70702 -0.707194 0
    outer loop
      vertex -3.64656 10.8899 2.5
      vertex -3.88992 10.6466 10.5
      vertex -3.88992 10.6466 2.5
    endloop
  endfacet
  facet normal -0.891008 0.453988 0
    outer loop
      vertex -2.11008 9.35344 2.5
      vertex -1.95384 9.66008 10.5
      vertex -1.95384 9.66008 2.5
    endloop
  endfacet
  facet normal -0.891008 0.453988 0
    outer loop
      vertex -1.95384 9.66008 10.5
      vertex -2.11008 9.35344 2.5
      vertex -2.11008 9.35344 10.5
    endloop
  endfacet
  facet normal -0.987687 0.15644 0
    outer loop
      vertex -1.95384 9.66008 2.5
      vertex -1.9 10 10.5
      vertex -1.9 10 2.5
    endloop
  endfacet
  facet normal -0.987687 0.15644 0
    outer loop
      vertex -1.9 10 10.5
      vertex -1.95384 9.66008 2.5
      vertex -1.95384 9.66008 10.5
    endloop
  endfacet
  facet normal 0.707107 0.707107 0
    outer loop
      vertex -3.64656 9.11008 10.5
      vertex -3.88992 9.35344 2.5
      vertex -3.88992 9.35344 10.5
    endloop
  endfacet
  facet normal 0.707107 0.707107 0
    outer loop
      vertex -3.88992 9.35344 2.5
      vertex -3.64656 9.11008 10.5
      vertex -3.64656 9.11008 2.5
    endloop
  endfacet
  facet normal 0.453988 0.891008 -0
    outer loop
      vertex -3.33992 8.95384 2.5
      vertex -3.64656 9.11008 10.5
      vertex -3.33992 8.95384 10.5
    endloop
  endfacet
  facet normal 0.453988 0.891008 0
    outer loop
      vertex -3.64656 9.11008 10.5
      vertex -3.33992 8.95384 2.5
      vertex -3.64656 9.11008 2.5
    endloop
  endfacet
  facet normal -0.156403 -0.987693 0
    outer loop
      vertex -3.92705 47.1468 2.5
      vertex -3 47 10.5
      vertex -3.92705 47.1468 10.5
    endloop
  endfacet
  facet normal -0.156403 -0.987693 -0
    outer loop
      vertex -3 47 10.5
      vertex -3.92705 47.1468 2.5
      vertex -3 47 2.5
    endloop
  endfacet
  facet normal -0.453973 -0.891016 0
    outer loop
      vertex -4.76336 47.5729 2.5
      vertex -3.92705 47.1468 10.5
      vertex -4.76336 47.5729 10.5
    endloop
  endfacet
  facet normal -0.453973 -0.891016 -0
    outer loop
      vertex -3.92705 47.1468 10.5
      vertex -4.76336 47.5729 2.5
      vertex -3.92705 47.1468 2.5
    endloop
  endfacet
  facet normal -0.98769 0.156426 0
    outer loop
      vertex -6 50 2.5
      vertex -5.85317 50.9271 10.5
      vertex -5.85317 50.9271 2.5
    endloop
  endfacet
  facet normal -0.98769 0.156426 0
    outer loop
      vertex -5.85317 50.9271 10.5
      vertex -6 50 2.5
      vertex -6 50 10.5
    endloop
  endfacet
  facet normal -0.707112 0.707101 0
    outer loop
      vertex -5.42705 51.7634 2.5
      vertex -4.76336 52.4271 10.5
      vertex -4.76336 52.4271 2.5
    endloop
  endfacet
  facet normal -0.707112 0.707101 0
    outer loop
      vertex -4.76336 52.4271 10.5
      vertex -5.42705 51.7634 2.5
      vertex -5.42705 51.7634 10.5
    endloop
  endfacet
  facet normal -0.98769 -0.156426 0
    outer loop
      vertex -5.85317 49.0729 2.5
      vertex -6 50 10.5
      vertex -6 50 2.5
    endloop
  endfacet
  facet normal -0.98769 -0.156426 0
    outer loop
      vertex -6 50 10.5
      vertex -5.85317 49.0729 2.5
      vertex -5.85317 49.0729 10.5
    endloop
  endfacet
  facet normal -0.156403 0.987693 0
    outer loop
      vertex -3 53 2.5
      vertex -3.92705 52.8532 10.5
      vertex -3 53 10.5
    endloop
  endfacet
  facet normal -0.156403 0.987693 0
    outer loop
      vertex -3.92705 52.8532 10.5
      vertex -3 53 2.5
      vertex -3.92705 52.8532 2.5
    endloop
  endfacet
  facet normal -0.707112 -0.707101 0
    outer loop
      vertex -4.76336 47.5729 2.5
      vertex -5.42705 48.2366 10.5
      vertex -5.42705 48.2366 2.5
    endloop
  endfacet
  facet normal -0.707112 -0.707101 0
    outer loop
      vertex -5.42705 48.2366 10.5
      vertex -4.76336 47.5729 2.5
      vertex -4.76336 47.5729 10.5
    endloop
  endfacet
  facet normal -0.453973 0.891016 0
    outer loop
      vertex -3.92705 52.8532 2.5
      vertex -4.76336 52.4271 10.5
      vertex -3.92705 52.8532 10.5
    endloop
  endfacet
  facet normal -0.453973 0.891016 0
    outer loop
      vertex -4.76336 52.4271 10.5
      vertex -3.92705 52.8532 2.5
      vertex -4.76336 52.4271 2.5
    endloop
  endfacet
  facet normal -0.891005 -0.453994 0
    outer loop
      vertex -5.42705 48.2366 2.5
      vertex -5.85317 49.0729 10.5
      vertex -5.85317 49.0729 2.5
    endloop
  endfacet
  facet normal -0.891005 -0.453994 0
    outer loop
      vertex -5.85317 49.0729 10.5
      vertex -5.42705 48.2366 2.5
      vertex -5.42705 48.2366 10.5
    endloop
  endfacet
  facet normal -0.891005 0.453994 0
    outer loop
      vertex -5.85317 50.9271 2.5
      vertex -5.42705 51.7634 10.5
      vertex -5.42705 51.7634 2.5
    endloop
  endfacet
  facet normal -0.891005 0.453994 0
    outer loop
      vertex -5.42705 51.7634 10.5
      vertex -5.85317 50.9271 2.5
      vertex -5.85317 50.9271 10.5
    endloop
  endfacet
  facet normal 0 0 -1
    outer loop
      vertex 0 47 2.5
      vertex -1.9 50 2.5
      vertex 0 53 2.5
    endloop
  endfacet
  facet normal 0 0 -1
    outer loop
      vertex 0 47 2.5
      vertex -1.95384 49.6601 2.5
      vertex -1.9 50 2.5
    endloop
  endfacet
  facet normal 0 0 -1
    outer loop
      vertex 0 47 2.5
      vertex -2.11008 49.3534 2.5
      vertex -1.95384 49.6601 2.5
    endloop
  endfacet
  facet normal 0 0 -1
    outer loop
      vertex 0 47 2.5
      vertex -2.35344 49.1101 2.5
      vertex -2.11008 49.3534 2.5
    endloop
  endfacet
  facet normal 0 0 -1
    outer loop
      vertex -3 47 2.5
      vertex -2.35344 49.1101 2.5
      vertex 0 47 2.5
    endloop
  endfacet
  facet normal 0 0 -1
    outer loop
      vertex -2.35344 49.1101 2.5
      vertex -3 47 2.5
      vertex -2.66008 48.9538 2.5
    endloop
  endfacet
  facet normal 0 0 -1
    outer loop
      vertex -3 47 2.5
      vertex -3 48.9 2.5
      vertex -2.66008 48.9538 2.5
    endloop
  endfacet
  facet normal 0 0 -1
    outer loop
      vertex -3 47 2.5
      vertex -3.33992 48.9538 2.5
      vertex -3 48.9 2.5
    endloop
  endfacet
  facet normal 0 0 -1
    outer loop
      vertex -3.92705 47.1468 2.5
      vertex -3.33992 48.9538 2.5
      vertex -3 47 2.5
    endloop
  endfacet
  facet normal -0 0 -1
    outer loop
      vertex -3.33992 48.9538 2.5
      vertex -3.92705 47.1468 2.5
      vertex -3.64656 49.1101 2.5
    endloop
  endfacet
  facet normal 0 0 -1
    outer loop
      vertex -4.76336 47.5729 2.5
      vertex -3.64656 49.1101 2.5
      vertex -3.92705 47.1468 2.5
    endloop
  endfacet
  facet normal -0 0 -1
    outer loop
      vertex -3.64656 49.1101 2.5
      vertex -4.76336 47.5729 2.5
      vertex -3.88992 49.3534 2.5
    endloop
  endfacet
  facet normal 0 0 -1
    outer loop
      vertex -5.42705 48.2366 2.5
      vertex -3.88992 49.3534 2.5
      vertex -4.76336 47.5729 2.5
    endloop
  endfacet
  facet normal -0 0 -1
    outer loop
      vertex -3.88992 49.3534 2.5
      vertex -5.42705 48.2366 2.5
      vertex -4.04616 49.6601 2.5
    endloop
  endfacet
  facet normal 0 0 -1
    outer loop
      vertex -1.95384 50.3399 2.5
      vertex 0 53 2.5
      vertex -1.9 50 2.5
    endloop
  endfacet
  facet normal 0 0 -1
    outer loop
      vertex -2.11008 50.6466 2.5
      vertex 0 53 2.5
      vertex -1.95384 50.3399 2.5
    endloop
  endfacet
  facet normal 0 0 -1
    outer loop
      vertex -2.35344 50.8899 2.5
      vertex 0 53 2.5
      vertex -2.11008 50.6466 2.5
    endloop
  endfacet
  facet normal 0 0 -1
    outer loop
      vertex -3 53 2.5
      vertex -2.35344 50.8899 2.5
      vertex -2.66008 51.0462 2.5
    endloop
  endfacet
  facet normal 0 0 -1
    outer loop
      vertex -3 53 2.5
      vertex -2.66008 51.0462 2.5
      vertex -3 51.1 2.5
    endloop
  endfacet
  facet normal 0 0 -1
    outer loop
      vertex -2.35344 50.8899 2.5
      vertex -3 53 2.5
      vertex 0 53 2.5
    endloop
  endfacet
  facet normal 0 0 -1
    outer loop
      vertex -3.33992 51.0462 2.5
      vertex -3 53 2.5
      vertex -3 51.1 2.5
    endloop
  endfacet
  facet normal 0 0 -1
    outer loop
      vertex -3.92705 52.8532 2.5
      vertex -3.33992 51.0462 2.5
      vertex -3.64656 50.8899 2.5
    endloop
  endfacet
  facet normal 0 0 -1
    outer loop
      vertex -4.76336 52.4271 2.5
      vertex -3.64656 50.8899 2.5
      vertex -3.88992 50.6466 2.5
    endloop
  endfacet
  facet normal 0 0 -1
    outer loop
      vertex -3.33992 51.0462 2.5
      vertex -3.92705 52.8532 2.5
      vertex -3 53 2.5
    endloop
  endfacet
  facet normal 0 0 -1
    outer loop
      vertex -5.42705 51.7634 2.5
      vertex -3.88992 50.6466 2.5
      vertex -4.04616 50.3399 2.5
    endloop
  endfacet
  facet normal 0 0 -1
    outer loop
      vertex -5.85317 50.9271 2.5
      vertex -4.04616 50.3399 2.5
      vertex -4.1 50 2.5
    endloop
  endfacet
  facet normal 0 0 -1
    outer loop
      vertex -5.85317 49.0729 2.5
      vertex -4.04616 49.6601 2.5
      vertex -5.42705 48.2366 2.5
    endloop
  endfacet
  facet normal 0 0 -1
    outer loop
      vertex -3.64656 50.8899 2.5
      vertex -4.76336 52.4271 2.5
      vertex -3.92705 52.8532 2.5
    endloop
  endfacet
  facet normal -0 0 -1
    outer loop
      vertex -4.04616 49.6601 2.5
      vertex -5.85317 49.0729 2.5
      vertex -4.1 50 2.5
    endloop
  endfacet
  facet normal 0 0 -1
    outer loop
      vertex -3.88992 50.6466 2.5
      vertex -5.42705 51.7634 2.5
      vertex -4.76336 52.4271 2.5
    endloop
  endfacet
  facet normal 0 0 -1
    outer loop
      vertex -6 50 2.5
      vertex -4.1 50 2.5
      vertex -5.85317 49.0729 2.5
    endloop
  endfacet
  facet normal 0 0 -1
    outer loop
      vertex -4.04616 50.3399 2.5
      vertex -5.85317 50.9271 2.5
      vertex -5.42705 51.7634 2.5
    endloop
  endfacet
  facet normal 0 0 -1
    outer loop
      vertex -4.1 50 2.5
      vertex -6 50 2.5
      vertex -5.85317 50.9271 2.5
    endloop
  endfacet
  facet normal 0 0 1
    outer loop
      vertex 0 53 10.5
      vertex -1.9 50 10.5
      vertex 0 47 10.5
    endloop
  endfacet
  facet normal 0 0 1
    outer loop
      vertex 0 53 10.5
      vertex -1.95384 50.3399 10.5
      vertex -1.9 50 10.5
    endloop
  endfacet
  facet normal 0 0 1
    outer loop
      vertex 0 53 10.5
      vertex -2.11008 50.6466 10.5
      vertex -1.95384 50.3399 10.5
    endloop
  endfacet
  facet normal 0 0 1
    outer loop
      vertex 0 53 10.5
      vertex -2.35344 50.8899 10.5
      vertex -2.11008 50.6466 10.5
    endloop
  endfacet
  facet normal -0 0 1
    outer loop
      vertex -3 53 10.5
      vertex -2.35344 50.8899 10.5
      vertex 0 53 10.5
    endloop
  endfacet
  facet normal 0 0 1
    outer loop
      vertex -2.35344 50.8899 10.5
      vertex -3 53 10.5
      vertex -2.66008 51.0462 10.5
    endloop
  endfacet
  facet normal 0 0 1
    outer loop
      vertex -3 53 10.5
      vertex -3 51.1 10.5
      vertex -2.66008 51.0462 10.5
    endloop
  endfacet
  facet normal 0 0 1
    outer loop
      vertex -3 53 10.5
      vertex -3.33992 51.0462 10.5
      vertex -3 51.1 10.5
    endloop
  endfacet
  facet normal -0 0 1
    outer loop
      vertex -3.92705 52.8532 10.5
      vertex -3.33992 51.0462 10.5
      vertex -3 53 10.5
    endloop
  endfacet
  facet normal 0 0 1
    outer loop
      vertex -3.33992 51.0462 10.5
      vertex -3.92705 52.8532 10.5
      vertex -3.64656 50.8899 10.5
    endloop
  endfacet
  facet normal -0 0 1
    outer loop
      vertex -4.76336 52.4271 10.5
      vertex -3.64656 50.8899 10.5
      vertex -3.92705 52.8532 10.5
    endloop
  endfacet
  facet normal 0 0 1
    outer loop
      vertex -3.64656 50.8899 10.5
      vertex -4.76336 52.4271 10.5
      vertex -3.88992 50.6466 10.5
    endloop
  endfacet
  facet normal -0 0 1
    outer loop
      vertex -5.42705 51.7634 10.5
      vertex -3.88992 50.6466 10.5
      vertex -4.76336 52.4271 10.5
    endloop
  endfacet
  facet normal 0 0 1
    outer loop
      vertex -3.88992 50.6466 10.5
      vertex -5.42705 51.7634 10.5
      vertex -4.04616 50.3399 10.5
    endloop
  endfacet
  facet normal -0 0 1
    outer loop
      vertex -1.95384 49.6601 10.5
      vertex 0 47 10.5
      vertex -1.9 50 10.5
    endloop
  endfacet
  facet normal -0 0 1
    outer loop
      vertex -2.11008 49.3534 10.5
      vertex 0 47 10.5
      vertex -1.95384 49.6601 10.5
    endloop
  endfacet
  facet normal -0 0 1
    outer loop
      vertex -2.35344 49.1101 10.5
      vertex 0 47 10.5
      vertex -2.11008 49.3534 10.5
    endloop
  endfacet
  facet normal 0 0 1
    outer loop
      vertex -3 47 10.5
      vertex -2.35344 49.1101 10.5
      vertex -2.66008 48.9538 10.5
    endloop
  endfacet
  facet normal 0 0 1
    outer loop
      vertex -3 47 10.5
      vertex -2.66008 48.9538 10.5
      vertex -3 48.9 10.5
    endloop
  endfacet
  facet normal 0 0 1
    outer loop
      vertex -2.35344 49.1101 10.5
      vertex -3 47 10.5
      vertex 0 47 10.5
    endloop
  endfacet
  facet normal 0 0 1
    outer loop
      vertex -3.33992 48.9538 10.5
      vertex -3 47 10.5
      vertex -3 48.9 10.5
    endloop
  endfacet
  facet normal 0 0 1
    outer loop
      vertex -3.92705 47.1468 10.5
      vertex -3.33992 48.9538 10.5
      vertex -3.64656 49.1101 10.5
    endloop
  endfacet
  facet normal 0 0 1
    outer loop
      vertex -4.76336 47.5729 10.5
      vertex -3.64656 49.1101 10.5
      vertex -3.88992 49.3534 10.5
    endloop
  endfacet
  facet normal 0 0 1
    outer loop
      vertex -3.33992 48.9538 10.5
      vertex -3.92705 47.1468 10.5
      vertex -3 47 10.5
    endloop
  endfacet
  facet normal 0 0 1
    outer loop
      vertex -5.42705 48.2366 10.5
      vertex -3.88992 49.3534 10.5
      vertex -4.04616 49.6601 10.5
    endloop
  endfacet
  facet normal 0 0 1
    outer loop
      vertex -5.85317 49.0729 10.5
      vertex -4.04616 49.6601 10.5
      vertex -4.1 50 10.5
    endloop
  endfacet
  facet normal -0 0 1
    outer loop
      vertex -5.85317 50.9271 10.5
      vertex -4.04616 50.3399 10.5
      vertex -5.42705 51.7634 10.5
    endloop
  endfacet
  facet normal 0 0 1
    outer loop
      vertex -3.64656 49.1101 10.5
      vertex -4.76336 47.5729 10.5
      vertex -3.92705 47.1468 10.5
    endloop
  endfacet
  facet normal 0 0 1
    outer loop
      vertex -4.04616 50.3399 10.5
      vertex -5.85317 50.9271 10.5
      vertex -4.1 50 10.5
    endloop
  endfacet
  facet normal 0 0 1
    outer loop
      vertex -3.88992 49.3534 10.5
      vertex -5.42705 48.2366 10.5
      vertex -4.76336 47.5729 10.5
    endloop
  endfacet
  facet normal 0 0 1
    outer loop
      vertex -6 50 10.5
      vertex -4.1 50 10.5
      vertex -5.85317 50.9271 10.5
    endloop
  endfacet
  facet normal 0 0 1
    outer loop
      vertex -4.04616 49.6601 10.5
      vertex -5.85317 49.0729 10.5
      vertex -5.42705 48.2366 10.5
    endloop
  endfacet
  facet normal 0 0 1
    outer loop
      vertex -4.1 50 10.5
      vertex -6 50 10.5
      vertex -5.85317 49.0729 10.5
    endloop
  endfacet
  facet normal 0 1 -0
    outer loop
      vertex 0 53 2.5
      vertex -3 53 10.5
      vertex 0 53 10.5
    endloop
  endfacet
  facet normal 0 1 0
    outer loop
      vertex -3 53 10.5
      vertex 0 53 2.5
      vertex -3 53 2.5
    endloop
  endfacet
  facet normal 0 -1 0
    outer loop
      vertex -3 47 2.5
      vertex 0 47 10.5
      vertex -3 47 10.5
    endloop
  endfacet
  facet normal 0 -1 -0
    outer loop
      vertex 0 47 10.5
      vertex -3 47 2.5
      vertex 0 47 2.5
    endloop
  endfacet
  facet normal -0.891043 -0.453918 0
    outer loop
      vertex -1.95384 50.3399 2.5
      vertex -2.11008 50.6466 10.5
      vertex -2.11008 50.6466 2.5
    endloop
  endfacet
  facet normal -0.891043 -0.453918 0
    outer loop
      vertex -2.11008 50.6466 10.5
      vertex -1.95384 50.3399 2.5
      vertex -1.95384 50.3399 10.5
    endloop
  endfacet
  facet normal -0.987686 -0.156449 0
    outer loop
      vertex -1.9 50 2.5
      vertex -1.95384 50.3399 10.5
      vertex -1.95384 50.3399 2.5
    endloop
  endfacet
  facet normal -0.987686 -0.156449 0
    outer loop
      vertex -1.95384 50.3399 10.5
      vertex -1.9 50 2.5
      vertex -1.9 50 10.5
    endloop
  endfacet
  facet normal -0.70702 -0.707194 0
    outer loop
      vertex -2.11008 50.6466 2.5
      vertex -2.35344 50.8899 10.5
      vertex -2.35344 50.8899 2.5
    endloop
  endfacet
  facet normal -0.70702 -0.707194 0
    outer loop
      vertex -2.35344 50.8899 10.5
      vertex -2.11008 50.6466 2.5
      vertex -2.11008 50.6466 10.5
    endloop
  endfacet
  facet normal -0.156327 -0.987705 0
    outer loop
      vertex -3 51.1 2.5
      vertex -2.66008 51.0462 10.5
      vertex -3 51.1 10.5
    endloop
  endfacet
  facet normal -0.156327 -0.987705 -0
    outer loop
      vertex -2.66008 51.0462 10.5
      vertex -3 51.1 2.5
      vertex -2.66008 51.0462 2.5
    endloop
  endfacet
  facet normal 0.987686 -0.156449 0
    outer loop
      vertex -4.1 50 10.5
      vertex -4.04616 50.3399 2.5
      vertex -4.04616 50.3399 10.5
    endloop
  endfacet
  facet normal 0.987686 -0.156449 0
    outer loop
      vertex -4.04616 50.3399 2.5
      vertex -4.1 50 10.5
      vertex -4.1 50 2.5
    endloop
  endfacet
  facet normal -0.454127 -0.890937 0
    outer loop
      vertex -2.66008 51.0462 2.5
      vertex -2.35344 50.8899 10.5
      vertex -2.66008 51.0462 10.5
    endloop
  endfacet
  facet normal -0.454127 -0.890937 -0
    outer loop
      vertex -2.35344 50.8899 10.5
      vertex -2.66008 51.0462 2.5
      vertex -2.35344 50.8899 2.5
    endloop
  endfacet
  facet normal 0.454127 -0.890937 0
    outer loop
      vertex -3.64656 50.8899 2.5
      vertex -3.33992 51.0462 10.5
      vertex -3.64656 50.8899 10.5
    endloop
  endfacet
  facet normal 0.454127 -0.890937 0
    outer loop
      vertex -3.33992 51.0462 10.5
      vertex -3.64656 50.8899 2.5
      vertex -3.33992 51.0462 2.5
    endloop
  endfacet
  facet normal 0.156327 0.987705 -0
    outer loop
      vertex -3 48.9 2.5
      vertex -3.33992 48.9538 10.5
      vertex -3 48.9 10.5
    endloop
  endfacet
  facet normal 0.156327 0.987705 0
    outer loop
      vertex -3.33992 48.9538 10.5
      vertex -3 48.9 2.5
      vertex -3.33992 48.9538 2.5
    endloop
  endfacet
  facet normal -0.70702 0.707194 0
    outer loop
      vertex -2.35344 49.1101 2.5
      vertex -2.11008 49.3534 10.5
      vertex -2.11008 49.3534 2.5
    endloop
  endfacet
  facet normal -0.70702 0.707194 0
    outer loop
      vertex -2.11008 49.3534 10.5
      vertex -2.35344 49.1101 2.5
      vertex -2.35344 49.1101 10.5
    endloop
  endfacet
  facet normal 0.891043 0.453918 0
    outer loop
      vertex -3.88992 49.3534 10.5
      vertex -4.04616 49.6601 2.5
      vertex -4.04616 49.6601 10.5
    endloop
  endfacet
  facet normal 0.891043 0.453918 0
    outer loop
      vertex -4.04616 49.6601 2.5
      vertex -3.88992 49.3534 10.5
      vertex -3.88992 49.3534 2.5
    endloop
  endfacet
  facet normal 0.156327 -0.987705 0
    outer loop
      vertex -3.33992 51.0462 2.5
      vertex -3 51.1 10.5
      vertex -3.33992 51.0462 10.5
    endloop
  endfacet
  facet normal 0.156327 -0.987705 0
    outer loop
      vertex -3 51.1 10.5
      vertex -3.33992 51.0462 2.5
      vertex -3 51.1 2.5
    endloop
  endfacet
  facet normal -0.454127 0.890937 0
    outer loop
      vertex -2.35344 49.1101 2.5
      vertex -2.66008 48.9538 10.5
      vertex -2.35344 49.1101 10.5
    endloop
  endfacet
  facet normal -0.454127 0.890937 0
    outer loop
      vertex -2.66008 48.9538 10.5
      vertex -2.35344 49.1101 2.5
      vertex -2.66008 48.9538 2.5
    endloop
  endfacet
  facet normal -0.156327 0.987705 0
    outer loop
      vertex -2.66008 48.9538 2.5
      vertex -3 48.9 10.5
      vertex -2.66008 48.9538 10.5
    endloop
  endfacet
  facet normal -0.156327 0.987705 0
    outer loop
      vertex -3 48.9 10.5
      vertex -2.66008 48.9538 2.5
      vertex -3 48.9 2.5
    endloop
  endfacet
  facet normal 0.987686 0.156449 0
    outer loop
      vertex -4.04616 49.6601 10.5
      vertex -4.1 50 2.5
      vertex -4.1 50 10.5
    endloop
  endfacet
  facet normal 0.987686 0.156449 0
    outer loop
      vertex -4.1 50 2.5
      vertex -4.04616 49.6601 10.5
      vertex -4.04616 49.6601 2.5
    endloop
  endfacet
  facet normal 0.891043 -0.453918 0
    outer loop
      vertex -4.04616 50.3399 10.5
      vertex -3.88992 50.6466 2.5
      vertex -3.88992 50.6466 10.5
    endloop
  endfacet
  facet normal 0.891043 -0.453918 0
    outer loop
      vertex -3.88992 50.6466 2.5
      vertex -4.04616 50.3399 10.5
      vertex -4.04616 50.3399 2.5
    endloop
  endfacet
  facet normal 0.70702 -0.707194 0
    outer loop
      vertex -3.88992 50.6466 10.5
      vertex -3.64656 50.8899 2.5
      vertex -3.64656 50.8899 10.5
    endloop
  endfacet
  facet normal 0.70702 -0.707194 0
    outer loop
      vertex -3.64656 50.8899 2.5
      vertex -3.88992 50.6466 10.5
      vertex -3.88992 50.6466 2.5
    endloop
  endfacet
  facet normal -0.891043 0.453918 0
    outer loop
      vertex -2.11008 49.3534 2.5
      vertex -1.95384 49.6601 10.5
      vertex -1.95384 49.6601 2.5
    endloop
  endfacet
  facet normal -0.891043 0.453918 0
    outer loop
      vertex -1.95384 49.6601 10.5
      vertex -2.11008 49.3534 2.5
      vertex -2.11008 49.3534 10.5
    endloop
  endfacet
  facet normal -0.987686 0.156449 0
    outer loop
      vertex -1.95384 49.6601 2.5
      vertex -1.9 50 10.5
      vertex -1.9 50 2.5
    endloop
  endfacet
  facet normal -0.987686 0.156449 0
    outer loop
      vertex -1.9 50 10.5
      vertex -1.95384 49.6601 2.5
      vertex -1.95384 49.6601 10.5
    endloop
  endfacet
  facet normal 0.70702 0.707194 0
    outer loop
      vertex -3.64656 49.1101 10.5
      vertex -3.88992 49.3534 2.5
      vertex -3.88992 49.3534 10.5
    endloop
  endfacet
  facet normal 0.70702 0.707194 0
    outer loop
      vertex -3.88992 49.3534 2.5
      vertex -3.64656 49.1101 10.5
      vertex -3.64656 49.1101 2.5
    endloop
  endfacet
  facet normal 0.454127 0.890937 -0
    outer loop
      vertex -3.33992 48.9538 2.5
      vertex -3.64656 49.1101 10.5
      vertex -3.33992 48.9538 10.5
    endloop
  endfacet
  facet normal 0.454127 0.890937 0
    outer loop
      vertex -3.64656 49.1101 10.5
      vertex -3.33992 48.9538 2.5
      vertex -3.64656 49.1101 2.5
    endloop
  endfacet
  facet normal 1 -0 0
    outer loop
      vertex 84 3.75 5
      vertex 84 56.25 2.5
      vertex 84 56.25 5
    endloop
  endfacet
  facet normal 1 0 0
    outer loop
      vertex 84 56.25 2.5
      vertex 84 3.75 5
      vertex 84 3.75 2.5
    endloop
  endfacet
  facet normal 0 0 1
    outer loop
      vertex 79.1 5 5
      vertex 84 56.25 5
      vertex 79.1 56.25 5
    endloop
  endfacet
  facet normal 0 0 1
    outer loop
      vertex 84 56.25 5
      vertex 79.1 5 5
      vertex 84 3.75 5
    endloop
  endfacet
  facet normal 0 0 1
    outer loop
      vertex 79 3.75 5
      vertex 79.1 5 5
      vertex 79 5 5
    endloop
  endfacet
  facet normal 0 0 1
    outer loop
      vertex 79.1 5 5
      vertex 79 3.75 5
      vertex 84 3.75 5
    endloop
  endfacet
  facet normal 0 0 -1
    outer loop
      vertex 76.5 5 5
      vertex 79 8.65 5
      vertex 79 5 5
    endloop
  endfacet
  facet normal -0 0 -1
    outer loop
      vertex 79 8.65 5
      vertex 76.5 5 5
      vertex 76.5 8.65 5
    endloop
  endfacet
  facet normal 0 0 -1
    outer loop
      vertex 76.5 51.35 5
      vertex 79 85 5
      vertex 79 51.35 5
    endloop
  endfacet
  facet normal -0 0 -1
    outer loop
      vertex 79 85 5
      vertex 76.5 51.35 5
      vertex 76.5 85 5
    endloop
  endfacet
  facet normal 0 -1 0
    outer loop
      vertex 79 3.75 2.5
      vertex 84 3.75 5
      vertex 79 3.75 5
    endloop
  endfacet
  facet normal 0 -1 -0
    outer loop
      vertex 84 3.75 5
      vertex 79 3.75 2.5
      vertex 84 3.75 2.5
    endloop
  endfacet
  facet normal 0 1 -0
    outer loop
      vertex 84 56.25 2.5
      vertex 79.1 56.25 5
      vertex 84 56.25 5
    endloop
  endfacet
  facet normal 0 1 0
    outer loop
      vertex 79.1 56.25 5
      vertex 84 56.25 2.5
      vertex 79.1 56.25 2.5
    endloop
  endfacet
  facet normal 0 -0.70702 0.707194
    outer loop
      vertex 76.5 6.39656 12.7101
      vertex 79 6.63992 12.9534
      vertex 76.5 6.63992 12.9534
    endloop
  endfacet
  facet normal 0 -0.70702 0.707194
    outer loop
      vertex 79 6.63992 12.9534
      vertex 76.5 6.39656 12.7101
      vertex 79 6.39656 12.7101
    endloop
  endfacet
  facet normal 0 0.454127 -0.890937
    outer loop
      vertex 76.5 5.10344 14.4899
      vertex 79 5.41008 14.6462
      vertex 79 5.10344 14.4899
    endloop
  endfacet
  facet normal 0 0.454127 -0.890937
    outer loop
      vertex 79 5.41008 14.6462
      vertex 76.5 5.10344 14.4899
      vertex 76.5 5.41008 14.6462
    endloop
  endfacet
  facet normal -0 0.156327 0.987705
    outer loop
      vertex 76.5 5.75 12.5
      vertex 79 5.41008 12.5538
      vertex 79 5.75 12.5
    endloop
  endfacet
  facet normal 0 0.156327 0.987705
    outer loop
      vertex 79 5.41008 12.5538
      vertex 76.5 5.75 12.5
      vertex 76.5 5.41008 12.5538
    endloop
  endfacet
  facet normal 0 -0.987686 0.156449
    outer loop
      vertex 76.5 6.79616 13.2601
      vertex 79 6.85 13.6
      vertex 76.5 6.85 13.6
    endloop
  endfacet
  facet normal 0 -0.987686 0.156449
    outer loop
      vertex 79 6.85 13.6
      vertex 76.5 6.79616 13.2601
      vertex 79 6.79616 13.2601
    endloop
  endfacet
  facet normal 0 -0.987686 -0.156449
    outer loop
      vertex 76.5 6.85 13.6
      vertex 79 6.79616 13.9399
      vertex 76.5 6.79616 13.9399
    endloop
  endfacet
  facet normal 0 -0.987686 -0.156449
    outer loop
      vertex 79 6.79616 13.9399
      vertex 76.5 6.85 13.6
      vertex 79 6.85 13.6
    endloop
  endfacet
  facet normal 0 -0.156327 0.987705
    outer loop
      vertex 76.5 6.08992 12.5538
      vertex 79 5.75 12.5
      vertex 79 6.08992 12.5538
    endloop
  endfacet
  facet normal 0 -0.156327 0.987705
    outer loop
      vertex 79 5.75 12.5
      vertex 76.5 6.08992 12.5538
      vertex 76.5 5.75 12.5
    endloop
  endfacet
  facet normal 0 0.987686 0.156449
    outer loop
      vertex 79 4.70384 13.2601
      vertex 76.5 4.65 13.6
      vertex 79 4.65 13.6
    endloop
  endfacet
  facet normal 0 0.987686 0.156449
    outer loop
      vertex 76.5 4.65 13.6
      vertex 79 4.70384 13.2601
      vertex 76.5 4.70384 13.2601
    endloop
  endfacet
  facet normal -0 0.454127 0.890937
    outer loop
      vertex 76.5 5.41008 12.5538
      vertex 79 5.10344 12.7101
      vertex 79 5.41008 12.5538
    endloop
  endfacet
  facet normal 0 0.454127 0.890937
    outer loop
      vertex 79 5.10344 12.7101
      vertex 76.5 5.41008 12.5538
      vertex 76.5 5.10344 12.7101
    endloop
  endfacet
  facet normal 0 -0.454127 0.890937
    outer loop
      vertex 76.5 6.39656 12.7101
      vertex 79 6.08992 12.5538
      vertex 79 6.39656 12.7101
    endloop
  endfacet
  facet normal 0 -0.454127 0.890937
    outer loop
      vertex 79 6.08992 12.5538
      vertex 76.5 6.39656 12.7101
      vertex 76.5 6.08992 12.5538
    endloop
  endfacet
  facet normal 0 0.891043 0.453918
    outer loop
      vertex 79 4.86008 12.9534
      vertex 76.5 4.70384 13.2601
      vertex 79 4.70384 13.2601
    endloop
  endfacet
  facet normal 0 0.891043 0.453918
    outer loop
      vertex 76.5 4.70384 13.2601
      vertex 79 4.86008 12.9534
      vertex 76.5 4.86008 12.9534
    endloop
  endfacet
  facet normal 0 0.70702 0.707194
    outer loop
      vertex 79 5.10344 12.7101
      vertex 76.5 4.86008 12.9534
      vertex 79 4.86008 12.9534
    endloop
  endfacet
  facet normal 0 0.70702 0.707194
    outer loop
      vertex 76.5 4.86008 12.9534
      vertex 79 5.10344 12.7101
      vertex 76.5 5.10344 12.7101
    endloop
  endfacet
  facet normal 0 0.987686 -0.156449
    outer loop
      vertex 79 4.65 13.6
      vertex 76.5 4.70384 13.9399
      vertex 79 4.70384 13.9399
    endloop
  endfacet
  facet normal 0 0.987686 -0.156449
    outer loop
      vertex 76.5 4.70384 13.9399
      vertex 79 4.65 13.6
      vertex 76.5 4.65 13.6
    endloop
  endfacet
  facet normal 0 0.156327 -0.987705
    outer loop
      vertex 76.5 5.41008 14.6462
      vertex 79 5.75 14.7
      vertex 79 5.41008 14.6462
    endloop
  endfacet
  facet normal 0 0.156327 -0.987705
    outer loop
      vertex 79 5.75 14.7
      vertex 76.5 5.41008 14.6462
      vertex 76.5 5.75 14.7
    endloop
  endfacet
  facet normal 0 -0.891043 0.453918
    outer loop
      vertex 76.5 6.63992 12.9534
      vertex 79 6.79616 13.2601
      vertex 76.5 6.79616 13.2601
    endloop
  endfacet
  facet normal 0 -0.891043 0.453918
    outer loop
      vertex 79 6.79616 13.2601
      vertex 76.5 6.63992 12.9534
      vertex 79 6.63992 12.9534
    endloop
  endfacet
  facet normal 0 -0.156327 -0.987705
    outer loop
      vertex 76.5 5.75 14.7
      vertex 79 6.08992 14.6462
      vertex 79 5.75 14.7
    endloop
  endfacet
  facet normal -0 -0.156327 -0.987705
    outer loop
      vertex 79 6.08992 14.6462
      vertex 76.5 5.75 14.7
      vertex 76.5 6.08992 14.6462
    endloop
  endfacet
  facet normal 0 -0.891043 -0.453918
    outer loop
      vertex 76.5 6.79616 13.9399
      vertex 79 6.63992 14.2466
      vertex 76.5 6.63992 14.2466
    endloop
  endfacet
  facet normal 0 -0.891043 -0.453918
    outer loop
      vertex 79 6.63992 14.2466
      vertex 76.5 6.79616 13.9399
      vertex 79 6.79616 13.9399
    endloop
  endfacet
  facet normal 0 0.891043 -0.453918
    outer loop
      vertex 79 4.70384 13.9399
      vertex 76.5 4.86008 14.2466
      vertex 79 4.86008 14.2466
    endloop
  endfacet
  facet normal 0 0.891043 -0.453918
    outer loop
      vertex 76.5 4.86008 14.2466
      vertex 79 4.70384 13.9399
      vertex 76.5 4.70384 13.9399
    endloop
  endfacet
  facet normal 0 -0.70702 -0.707194
    outer loop
      vertex 76.5 6.63992 14.2466
      vertex 79 6.39656 14.4899
      vertex 76.5 6.39656 14.4899
    endloop
  endfacet
  facet normal 0 -0.70702 -0.707194
    outer loop
      vertex 79 6.39656 14.4899
      vertex 76.5 6.63992 14.2466
      vertex 79 6.63992 14.2466
    endloop
  endfacet
  facet normal 0 -0.454127 -0.890937
    outer loop
      vertex 76.5 6.08992 14.6462
      vertex 79 6.39656 14.4899
      vertex 79 6.08992 14.6462
    endloop
  endfacet
  facet normal -0 -0.454127 -0.890937
    outer loop
      vertex 79 6.39656 14.4899
      vertex 76.5 6.08992 14.6462
      vertex 76.5 6.39656 14.4899
    endloop
  endfacet
  facet normal 0 0.70702 -0.707194
    outer loop
      vertex 79 4.86008 14.2466
      vertex 76.5 5.10344 14.4899
      vertex 79 5.10344 14.4899
    endloop
  endfacet
  facet normal 0 0.70702 -0.707194
    outer loop
      vertex 76.5 5.10344 14.4899
      vertex 79 4.86008 14.2466
      vertex 76.5 4.86008 14.2466
    endloop
  endfacet
  facet normal 0 -0.454056 0.890973
    outer loop
      vertex 76.5 54.8966 12.7101
      vertex 79 54.5899 12.5538
      vertex 79 54.8966 12.7101
    endloop
  endfacet
  facet normal 0 -0.454056 0.890973
    outer loop
      vertex 79 54.5899 12.5538
      vertex 76.5 54.8966 12.7101
      vertex 76.5 54.5899 12.5538
    endloop
  endfacet
  facet normal 0 -0.707107 0.707107
    outer loop
      vertex 76.5 54.8966 12.7101
      vertex 79 55.1399 12.9534
      vertex 76.5 55.1399 12.9534
    endloop
  endfacet
  facet normal 0 -0.707107 0.707107
    outer loop
      vertex 79 55.1399 12.9534
      vertex 76.5 54.8966 12.7101
      vertex 79 54.8966 12.7101
    endloop
  endfacet
  facet normal 0 0.454056 -0.890973
    outer loop
      vertex 76.5 53.6034 14.4899
      vertex 79 53.9101 14.6462
      vertex 79 53.6034 14.4899
    endloop
  endfacet
  facet normal 0 0.454056 -0.890973
    outer loop
      vertex 79 53.9101 14.6462
      vertex 76.5 53.6034 14.4899
      vertex 76.5 53.9101 14.6462
    endloop
  endfacet
  facet normal -0 0.156336 0.987704
    outer loop
      vertex 76.5 54.25 12.5
      vertex 79 53.9101 12.5538
      vertex 79 54.25 12.5
    endloop
  endfacet
  facet normal 0 0.156336 0.987704
    outer loop
      vertex 79 53.9101 12.5538
      vertex 76.5 54.25 12.5
      vertex 76.5 53.9101 12.5538
    endloop
  endfacet
  facet normal 0 -0.987704 0.156336
    outer loop
      vertex 76.5 55.2962 13.2601
      vertex 79 55.35 13.6
      vertex 76.5 55.35 13.6
    endloop
  endfacet
  facet normal 0 -0.987704 0.156336
    outer loop
      vertex 79 55.35 13.6
      vertex 76.5 55.2962 13.2601
      vertex 79 55.2962 13.2601
    endloop
  endfacet
  facet normal 0 -0.987704 -0.156336
    outer loop
      vertex 76.5 55.35 13.6
      vertex 79 55.2962 13.9399
      vertex 76.5 55.2962 13.9399
    endloop
  endfacet
  facet normal 0 -0.987704 -0.156336
    outer loop
      vertex 79 55.2962 13.9399
      vertex 76.5 55.35 13.6
      vertex 79 55.35 13.6
    endloop
  endfacet
  facet normal 0 -0.156336 0.987704
    outer loop
      vertex 76.5 54.5899 12.5538
      vertex 79 54.25 12.5
      vertex 79 54.5899 12.5538
    endloop
  endfacet
  facet normal 0 -0.156336 0.987704
    outer loop
      vertex 79 54.25 12.5
      vertex 76.5 54.5899 12.5538
      vertex 76.5 54.25 12.5
    endloop
  endfacet
  facet normal 0 0.987704 0.156336
    outer loop
      vertex 79 53.2038 13.2601
      vertex 76.5 53.15 13.6
      vertex 79 53.15 13.6
    endloop
  endfacet
  facet normal 0 0.987704 0.156336
    outer loop
      vertex 76.5 53.15 13.6
      vertex 79 53.2038 13.2601
      vertex 76.5 53.2038 13.2601
    endloop
  endfacet
  facet normal -0 0.454056 0.890973
    outer loop
      vertex 76.5 53.9101 12.5538
      vertex 79 53.6034 12.7101
      vertex 79 53.9101 12.5538
    endloop
  endfacet
  facet normal 0 0.454056 0.890973
    outer loop
      vertex 79 53.6034 12.7101
      vertex 76.5 53.9101 12.5538
      vertex 76.5 53.6034 12.7101
    endloop
  endfacet
  facet normal 0 0.890973 0.454056
    outer loop
      vertex 79 53.3601 12.9534
      vertex 76.5 53.2038 13.2601
      vertex 79 53.2038 13.2601
    endloop
  endfacet
  facet normal 0 0.890973 0.454056
    outer loop
      vertex 76.5 53.2038 13.2601
      vertex 79 53.3601 12.9534
      vertex 76.5 53.3601 12.9534
    endloop
  endfacet
  facet normal 0 0.707107 0.707107
    outer loop
      vertex 79 53.6034 12.7101
      vertex 76.5 53.3601 12.9534
      vertex 79 53.3601 12.9534
    endloop
  endfacet
  facet normal 0 0.707107 0.707107
    outer loop
      vertex 76.5 53.3601 12.9534
      vertex 79 53.6034 12.7101
      vertex 76.5 53.6034 12.7101
    endloop
  endfacet
  facet normal 0 0.987704 -0.156336
    outer loop
      vertex 79 53.15 13.6
      vertex 76.5 53.2038 13.9399
      vertex 79 53.2038 13.9399
    endloop
  endfacet
  facet normal 0 0.987704 -0.156336
    outer loop
      vertex 76.5 53.2038 13.9399
      vertex 79 53.15 13.6
      vertex 76.5 53.15 13.6
    endloop
  endfacet
  facet normal 0 0.156336 -0.987704
    outer loop
      vertex 76.5 53.9101 14.6462
      vertex 79 54.25 14.7
      vertex 79 53.9101 14.6462
    endloop
  endfacet
  facet normal 0 0.156336 -0.987704
    outer loop
      vertex 79 54.25 14.7
      vertex 76.5 53.9101 14.6462
      vertex 76.5 54.25 14.7
    endloop
  endfacet
  facet normal 0 -0.890973 0.454056
    outer loop
      vertex 76.5 55.1399 12.9534
      vertex 79 55.2962 13.2601
      vertex 76.5 55.2962 13.2601
    endloop
  endfacet
  facet normal 0 -0.890973 0.454056
    outer loop
      vertex 79 55.2962 13.2601
      vertex 76.5 55.1399 12.9534
      vertex 79 55.1399 12.9534
    endloop
  endfacet
  facet normal 0 -0.156336 -0.987704
    outer loop
      vertex 76.5 54.25 14.7
      vertex 79 54.5899 14.6462
      vertex 79 54.25 14.7
    endloop
  endfacet
  facet normal -0 -0.156336 -0.987704
    outer loop
      vertex 79 54.5899 14.6462
      vertex 76.5 54.25 14.7
      vertex 76.5 54.5899 14.6462
    endloop
  endfacet
  facet normal 0 -0.890973 -0.454056
    outer loop
      vertex 76.5 55.2962 13.9399
      vertex 79 55.1399 14.2466
      vertex 76.5 55.1399 14.2466
    endloop
  endfacet
  facet normal 0 -0.890973 -0.454056
    outer loop
      vertex 79 55.1399 14.2466
      vertex 76.5 55.2962 13.9399
      vertex 79 55.2962 13.9399
    endloop
  endfacet
  facet normal 0 0.890973 -0.454056
    outer loop
      vertex 79 53.2038 13.9399
      vertex 76.5 53.3601 14.2466
      vertex 79 53.3601 14.2466
    endloop
  endfacet
  facet normal 0 0.890973 -0.454056
    outer loop
      vertex 76.5 53.3601 14.2466
      vertex 79 53.2038 13.9399
      vertex 76.5 53.2038 13.9399
    endloop
  endfacet
  facet normal 0 -0.707107 -0.707107
    outer loop
      vertex 76.5 55.1399 14.2466
      vertex 79 54.8966 14.4899
      vertex 76.5 54.8966 14.4899
    endloop
  endfacet
  facet normal 0 -0.707107 -0.707107
    outer loop
      vertex 79 54.8966 14.4899
      vertex 76.5 55.1399 14.2466
      vertex 79 55.1399 14.2466
    endloop
  endfacet
  facet normal 0 -0.454056 -0.890973
    outer loop
      vertex 76.5 54.5899 14.6462
      vertex 79 54.8966 14.4899
      vertex 79 54.5899 14.6462
    endloop
  endfacet
  facet normal -0 -0.454056 -0.890973
    outer loop
      vertex 79 54.8966 14.4899
      vertex 76.5 54.5899 14.6462
      vertex 76.5 54.8966 14.4899
    endloop
  endfacet
  facet normal 0 0.707107 -0.707107
    outer loop
      vertex 79 53.3601 14.2466
      vertex 76.5 53.6034 14.4899
      vertex 79 53.6034 14.4899
    endloop
  endfacet
  facet normal 0 0.707107 -0.707107
    outer loop
      vertex 76.5 53.6034 14.4899
      vertex 79 53.3601 14.2466
      vertex 76.5 53.3601 14.2466
    endloop
  endfacet
  facet normal -1 0 0
    outer loop
      vertex 79.1 5 2.5
      vertex 79.1 56.25 5
      vertex 79.1 56.25 2.5
    endloop
  endfacet
  facet normal -1 -0 0
    outer loop
      vertex 79.1 56.25 5
      vertex 79.1 5 2.5
      vertex 79.1 5 5
    endloop
  endfacet
  facet normal 0 1 -0
    outer loop
      vertex 79 8.65 5
      vertex 76.5 8.65 17.5
      vertex 79 8.65 17.5
    endloop
  endfacet
  facet normal 0 1 0
    outer loop
      vertex 76.5 8.65 17.5
      vertex 79 8.65 5
      vertex 76.5 8.65 5
    endloop
  endfacet
  facet normal 0 -1 0
    outer loop
      vertex 76.5 51.35 5
      vertex 79 51.35 17.5
      vertex 76.5 51.35 17.5
    endloop
  endfacet
  facet normal 0 -1 -0
    outer loop
      vertex 79 51.35 17.5
      vertex 76.5 51.35 5
      vertex 79 51.35 5
    endloop
  endfacet
  facet normal -0 0 1
    outer loop
      vertex 76.4 85 1
      vertex 79 5 1
      vertex 79 85 1
    endloop
  endfacet
  facet normal 0 0 1
    outer loop
      vertex 79 5 1
      vertex 76.4 85 1
      vertex 76.4 5 1
    endloop
  endfacet
  facet normal 1 -0 0
    outer loop
      vertex 76.4 5 2.5
      vertex 76.4 85 1
      vertex 76.4 85 2.5
    endloop
  endfacet
  facet normal 1 0 0
    outer loop
      vertex 76.4 85 1
      vertex 76.4 5 2.5
      vertex 76.4 5 1
    endloop
  endfacet
  facet normal 0 -1 0
    outer loop
      vertex 76.4 85 2.5
      vertex 76.4 85 1
      vertex 76.5 85 2.5
    endloop
  endfacet
  facet normal 0 -1 0
    outer loop
      vertex 76.5 85 2.5
      vertex 79 85 5
      vertex 76.5 85 5
    endloop
  endfacet
  facet normal 0 -1 0
    outer loop
      vertex 79 85 1
      vertex 76.5 85 2.5
      vertex 76.4 85 1
    endloop
  endfacet
  facet normal 0 -1 0
    outer loop
      vertex 76.5 85 2.5
      vertex 79 85 1
      vertex 79 85 5
    endloop
  endfacet
  facet normal 0 1 0
    outer loop
      vertex 79 5 2.5
      vertex 79 5 5
      vertex 79.1 5 5
    endloop
  endfacet
  facet normal 0 1 0
    outer loop
      vertex 79 5 2.5
      vertex 79.1 5 5
      vertex 79.1 5 2.5
    endloop
  endfacet
  facet normal 0 1 0
    outer loop
      vertex 79 5 5
      vertex 79 5 2.5
      vertex 76.5 5 5
    endloop
  endfacet
  facet normal 0 1 0
    outer loop
      vertex 79 5 2.5
      vertex 76.5 5 2.5
      vertex 76.5 5 5
    endloop
  endfacet
  facet normal 0 1 -0
    outer loop
      vertex 79 5 1
      vertex 76.5 5 2.5
      vertex 79 5 2.5
    endloop
  endfacet
  facet normal 0 1 0
    outer loop
      vertex 76.4 5 1
      vertex 76.5 5 2.5
      vertex 79 5 1
    endloop
  endfacet
  facet normal 0 1 0
    outer loop
      vertex 76.5 5 2.5
      vertex 76.4 5 1
      vertex 76.4 5 2.5
    endloop
  endfacet
endsolid OpenSCAD_Model
